<svg width="404" height="487" viewBox="0 0 404 487" fill="none" xmlns="http://www.w3.org/2000/svg">
<path d="M344.099 319.884L318.499 412.124C313.597 429.593 303.864 445.323 290.42 457.506C276.975 469.689 260.365 477.831 242.499 480.994C225.929 483.874 212.559 485.614 202.749 486.144L201.539 486.304H201.409C191.169 486.084 177.819 484.574 161.749 481.814C143.891 478.654 127.29 470.512 113.858 458.327C100.426 446.142 90.7095 430.41 85.8294 412.944L59.9994 319.874L147.999 284.954L151.099 283.784L151.609 283.564L168.709 242.624L152.939 237.084V232.974C150.369 227.974 148.189 227.654 144.649 227.184C141.195 226.89 137.858 225.787 134.909 223.964C127.709 219.444 127.389 214.964 127.859 212.694C122.339 209.694 118.409 206.014 119.249 201.604C120.599 194.604 111.159 186.304 107.059 183.064C103.707 180.49 100.942 177.231 98.9494 173.504C91.6394 159.764 82.4694 133.504 103.079 111.594C124.949 88.3939 124.629 73.1139 124.609 72.9739C124.499 71.2039 121.979 28.8239 138.009 15.9739C142.669 12.2539 148.389 11.3439 155.009 13.2739C182.499 21.2739 203.269 9.8639 211.099 5.5439C212.072 4.98698 213.073 4.48292 214.099 4.0339C223.419 0.523898 253.499 -4.1661 268.039 11.6639C272.109 16.1039 276.039 21.1839 280.199 26.5739C290.349 39.7439 301.849 54.6739 319.029 63.9939C333.029 71.6139 338.199 82.6039 340.029 90.5039C342.029 99.3239 340.679 107.344 338.259 110.734C336.32 113.093 334.179 115.278 331.859 117.264C326.199 122.494 318.469 129.654 321.559 133.184C322.389 134.124 323.229 135.014 324.039 135.894C327.339 139.414 330.199 142.454 329.879 146.154C329.659 148.574 328.089 150.834 325.049 153.154C321.165 155.825 317.064 158.166 312.789 160.154C308.789 162.154 302.019 165.544 302.429 167.034C303.052 169.208 303.889 171.315 304.929 173.324C305.363 174.044 305.601 174.865 305.618 175.706C305.636 176.546 305.433 177.376 305.029 178.114C303.909 179.984 301.339 180.974 297.179 181.114C286.589 181.494 278.179 184.004 274.619 187.844C273.938 188.537 273.408 189.364 273.063 190.273C272.719 191.182 272.568 192.153 272.619 193.124C272.58 195.621 271.89 198.064 270.619 200.214C273.619 203.074 276.769 208.904 272.349 215.634C269.349 220.224 264.349 221.884 259.559 223.454C255.039 224.954 250.799 226.384 247.939 230.054V237.114L234.099 241.894L250.169 280.384L250.519 281.184L253.889 282.584L344.099 319.884ZM334.369 342.834L340.189 321.784L332.099 318.424C331.199 321.424 328.009 334.394 334.359 342.834H334.369ZM335.559 108.834C337.229 106.494 338.709 99.4739 336.809 91.2139C336.279 88.9244 335.522 86.6934 334.549 84.5539C331.689 96.9139 317.859 108.734 293.659 110.314C286.659 110.784 281.659 113.134 278.859 117.314C274.199 124.314 276.679 134.484 277.449 137.144C279.737 138.159 281.805 139.61 283.539 141.414C291.639 150.074 312.719 152.464 325.049 148.724C325.869 147.966 326.411 146.956 326.589 145.854C326.789 143.594 324.399 141.024 321.589 138.074C320.769 137.194 319.889 136.274 319.039 135.294C313.859 129.384 322.569 121.294 329.569 114.864C331.717 113.013 333.717 110.997 335.549 108.834H335.559ZM332.359 350.064L333.839 344.754C325.839 335.494 329.649 320.814 330.559 317.754L327.099 316.374C325.329 320.784 321.099 334.784 332.349 350.064H332.359ZM322.889 384.134L331.809 352.044C330.247 350.041 328.855 347.91 327.649 345.674C324.729 349.294 314.649 363.994 322.879 384.134H322.889ZM331.889 79.6939C328.229 74.2767 323.276 69.8569 317.479 66.8339C314.449 65.1807 311.526 63.337 308.729 61.3139C286.349 62.5439 278.999 76.0139 271.919 89.0339C267.679 96.8639 263.669 104.254 256.659 108.784C255.282 109.671 253.841 110.456 252.349 111.134C256.749 117.524 257.839 127.034 255.149 134.394C259.219 134.024 266.869 133.744 273.769 135.794C272.769 131.164 271.659 122.294 276.189 115.524C279.569 110.444 285.389 107.594 293.469 107.074C321.709 105.224 331.829 89.8439 331.849 79.6939H331.889ZM326.889 344.104C326.369 342.994 325.889 341.904 325.489 340.834C321.399 345.334 305.349 365.544 321.059 390.974L322.259 386.624C311.639 363.544 324.469 346.874 326.829 344.104H326.889ZM325.619 315.784L304.619 307.104C292.209 346.684 272.999 369.504 254.969 382.644C251.509 404.704 245.129 419.514 235.819 426.884C231.616 430.292 226.361 432.14 220.949 432.114C218.389 432.099 215.843 431.739 213.379 431.044C207.057 429.206 201.403 425.577 197.099 420.594C195.139 418.387 193.273 416.174 191.499 413.954C180.213 412.581 169.838 407.064 162.389 398.474C157.411 392.713 153.097 386.41 149.529 379.684C118.659 353.914 108.699 314.024 106.769 304.834L79.6894 315.564C80.4094 318.364 81.8994 325.844 81.1694 337.734C82.7994 339.214 102.529 357.874 104.829 390.734C106.259 391.664 120.379 401.474 124.829 431.734C129.828 438.783 134.122 446.306 137.649 454.194C150.374 452.068 163.444 453.831 175.149 459.254L175.079 459.394C186.252 458.861 197.43 460.342 208.079 463.764C210.289 461.914 224.999 450.514 248.829 453.244C255.829 449.664 264.999 447.734 276.829 449.914C279.779 429.234 290.499 411.224 299.889 398.914C299.109 395.914 294.039 373.234 313.789 360.194C315.665 352.372 319.483 345.149 324.889 339.194C322.412 331.542 322.67 323.267 325.619 315.784V315.784ZM315.359 411.264L320.359 393.084C319.359 391.574 318.479 390.084 317.709 388.604C312.709 394.304 284.649 427.604 283.459 459.124C298.893 446.943 310.063 430.179 315.359 411.244V411.264ZM316.979 387.034C316.429 385.874 315.979 384.744 315.509 383.604C309.739 389.074 276.199 422.684 277.699 463.384C279.109 462.384 280.509 461.384 281.869 460.384C282.359 426.784 313.399 391.024 316.979 387.014V387.034ZM318.659 153.324C316.453 153.591 314.232 153.724 312.009 153.724C304.473 153.798 296.996 152.381 290.009 149.554C287.679 154.844 278.939 171.334 261.449 169.674C251.179 168.674 240.189 175.324 236.499 177.784C241.341 184.304 244.749 191.774 246.499 199.704C249.989 196.364 259.339 188.584 269.659 189.884C270.129 188.277 270.976 186.807 272.129 185.594C278.049 179.174 291.469 178.024 296.959 177.824C301.049 177.684 301.959 176.694 302.139 176.404C302.227 176.122 302.25 175.824 302.209 175.532C302.167 175.24 302.062 174.96 301.899 174.714C300.78 172.517 299.869 170.221 299.179 167.854C298.079 163.794 303.879 160.854 311.179 157.204C313.669 155.984 316.249 154.684 318.659 153.304V153.324ZM312.789 367.114C312.869 365.542 313.04 363.976 313.299 362.424C297.659 373.784 300.029 391.864 301.099 397.174C301.829 396.254 302.549 395.344 303.249 394.494C303.099 392.154 301.949 375.864 312.789 367.094V367.114ZM314.909 381.934C313.519 377.87 312.789 373.609 312.749 369.314C305.139 376.424 304.659 388.114 304.799 392.684C307.956 388.9 311.332 385.304 314.909 381.914V381.934ZM301.639 305.854L293.919 302.674C284.599 332.734 274.739 350.784 263.239 362.674C261.194 364.812 259.013 366.816 256.709 368.674C256.369 368.934 256.049 369.214 255.709 369.484C254.859 370.134 253.999 370.784 253.139 371.404C251.449 372.624 249.729 373.744 247.979 374.804C247.149 375.304 246.319 375.804 245.479 376.244L244.369 376.864C242.569 377.864 240.729 378.744 238.849 379.624C237.939 380.044 237.009 380.464 236.069 380.874C224.099 386.114 212.799 388.784 201.949 388.784C197.351 388.778 192.766 388.288 188.269 387.324C186.799 387.014 185.319 386.634 183.859 386.214C180.637 385.294 177.489 384.134 174.439 382.744C172.779 381.994 171.119 381.144 169.439 380.254C168.159 379.554 166.879 378.824 165.609 378.034C164.159 377.154 162.769 376.224 161.419 375.284C159.209 373.754 157.129 372.154 155.129 370.514C151.167 367.192 147.478 363.557 144.099 359.644C141.939 357.164 139.959 354.644 138.099 352.074C122.749 330.474 119.099 307.344 118.329 300.214L109.739 303.614C111.189 310.674 119.469 346.094 145.499 371.714C147.549 373.714 149.689 375.714 151.969 377.554C155.221 380.257 158.656 382.733 162.249 384.964C162.959 385.404 163.679 385.794 164.389 386.194C166.649 387.494 168.939 388.704 171.279 389.774C172.739 390.434 174.229 391.054 175.729 391.644C177.229 392.234 178.959 392.804 180.599 393.314C183.571 394.248 186.597 395.002 189.659 395.574C191.119 395.844 192.599 396.094 194.059 396.264C203.288 397.459 212.657 396.989 221.719 394.874C225.069 394.08 228.36 393.058 231.569 391.814C232.639 391.414 233.689 391.004 234.729 390.554C237.412 389.392 240.036 388.098 242.589 386.674L244.199 385.774C244.919 385.354 245.659 384.914 246.389 384.464C248.199 383.354 250.029 382.154 251.879 380.834C252.159 380.664 252.419 380.464 252.679 380.274C253.679 379.574 254.679 378.824 255.619 378.064C272.499 364.954 290.099 342.904 301.639 305.834V305.854ZM304.799 58.3939C293.689 49.4739 285.249 38.5239 277.569 28.5539C274.269 24.2739 271.099 20.1939 267.919 16.4939C258.529 19.3339 257.359 28.2339 256.149 37.6539C255.789 40.4139 255.459 43.0139 254.889 45.4639C252.889 54.3639 236.889 60.3939 228.159 63.0739C230.859 63.8039 233.249 64.3239 235.159 64.6439C243.889 66.1539 261.999 71.9539 271.259 83.4639C277.599 72.1239 285.739 60.6739 304.799 58.3739V58.3939ZM290.919 301.394L285.309 299.084C280.769 318.611 275.329 335.747 268.989 350.494C276.869 339.214 284.019 323.674 290.919 301.404V301.394ZM282.279 297.824L278.099 296.094C271.709 320.974 264.809 340.264 257.649 355.194C256.419 357.764 255.179 360.194 253.929 362.504C252.529 365.104 251.139 367.504 249.719 369.844C251.019 368.954 252.309 368.024 253.569 367.034C254.829 366.044 255.939 365.104 257.109 364.034C258.279 362.964 259.399 361.904 260.539 360.754C268.619 345.024 276.099 324.494 282.279 297.834V297.824ZM287.099 148.124C284.871 146.96 282.845 145.444 281.099 143.634C273.789 135.824 257.099 137.384 253.389 137.844C251.019 141.714 245.249 147.754 233.389 144.714C210.769 138.934 202.989 150.714 200.859 155.324C206.014 156.358 211.007 158.073 215.709 160.424C222.915 163.995 229.303 169.021 234.469 175.184C238.229 172.604 250.069 165.274 261.729 166.394C277.339 167.874 285.149 152.654 287.099 148.124ZM276.269 454.474C276.369 453.474 276.459 452.474 276.589 451.474C264.749 449.304 255.709 451.234 248.919 454.794V454.784H248.819C237.189 460.934 232.219 471.784 231.129 474.464C231.769 474.854 232.379 475.224 232.999 475.634C235.799 471.304 251.789 448.484 276.269 454.474ZM276.109 464.404C275.964 461.642 275.964 458.875 276.109 456.114C252.449 450.114 236.909 472.474 234.329 476.544C235.329 477.194 236.329 477.884 237.249 478.544C238.779 478.284 240.299 478.044 241.879 477.764C254.069 475.658 265.708 471.114 276.099 464.404H276.109ZM275.099 294.844L271.749 293.464C270.649 296.974 267.299 304.914 257.689 315.254C258.129 326.587 258.226 337.084 257.979 346.744C263.889 333.044 269.639 316.004 275.099 294.844ZM269.639 213.784C272.939 208.784 270.579 204.894 268.859 203.014C263.369 211.014 253.139 218.574 247.939 220.784V225.344C251.059 222.794 254.849 221.544 258.529 220.344C263.019 218.834 267.239 217.434 269.639 213.784ZM269.039 87.4939L269.529 86.5639C261.249 75.1039 243.169 69.3039 234.589 67.8239C226.359 66.4239 209.129 61.4439 196.749 51.7439C192.219 48.1739 186.439 47.4439 181.079 47.8639C181.179 51.3439 182.439 60.7239 192.659 67.7939C205.379 76.5939 222.659 88.6239 226.729 110.604C236.589 112.044 246.349 111.544 254.849 106.054C261.159 101.974 264.999 94.9439 269.039 87.4939V87.4939ZM247.939 217.224C255.299 213.494 269.639 201.004 269.319 193.224V193.144C258.209 191.764 247.639 203.254 247.519 203.364L247.159 203.054C247.667 206.142 247.928 209.265 247.939 212.394V217.224ZM268.669 292.224L260.289 288.784C251.924 301.911 240.576 312.875 227.169 320.784C205.169 333.724 205.589 348.994 205.599 349.154V350.084L198.599 354.644L198.759 351.464C198.759 351.314 199.159 336.034 177.189 323.094C163.484 315.013 151.941 303.731 143.549 290.214L138.679 292.154C141.099 297.324 151.099 315.894 179.099 339.264C195.579 353.014 200.189 366.564 201.449 372.064L202.219 371.564C202.806 364.69 205.177 358.089 209.099 352.414C213.373 346.087 218.96 340.756 225.479 336.784C259.439 315.564 267.159 297.034 268.669 292.214V292.224ZM257.229 287.474L252.299 285.474L249.189 284.194L248.349 284.474L241.579 286.734L238.479 287.734L217.329 294.784C206.341 298.453 194.515 298.801 183.329 295.784L162.739 290.244L159.569 289.384L153.379 287.724L151.289 287.164L149.859 287.724L146.669 288.994C154.816 301.797 165.856 312.508 178.899 320.264C197.039 330.964 200.999 343.174 201.849 348.664L202.379 348.324C202.559 344.474 204.719 330.234 225.519 317.954C238.293 310.363 249.144 299.93 257.229 287.464V287.474ZM252.929 37.2239C254.099 28.0139 255.449 17.6839 265.579 13.7839C252.169 -0.746101 223.959 3.7839 215.199 7.0539C214.749 7.2239 213.769 7.7639 212.649 8.3839C208.901 10.4997 205.024 12.3767 201.039 14.0039C207.809 16.6939 210.039 20.9039 213.119 26.7639C214.708 29.8991 216.464 32.9468 218.379 35.8939C225.579 46.7739 245.279 48.6939 249.129 48.9539C250.374 47.8183 251.275 46.3562 251.729 44.7339C252.249 42.4239 252.569 39.8939 252.929 37.2139V37.2239ZM254.389 354.504C254.879 344.034 254.939 332.094 254.489 318.504C253.289 319.684 251.999 320.901 250.619 322.154C250.719 338.284 250.219 352.374 249.109 364.514C250.879 361.414 252.649 358.084 254.389 354.494V354.504ZM250.669 136.174C254.829 129.384 254.099 118.784 249.189 112.404C234.819 117.334 218.349 112.614 204.739 108.694L199.979 107.334C184.809 103.114 158.839 113.244 155.519 114.594C155.369 116.594 155.319 118.894 155.259 121.384C155.169 125.034 155.059 129.064 154.669 133.154C159.479 133.774 173.279 136.154 177.419 144.074C179.291 147.836 181.644 151.339 184.419 154.494C188.813 154.077 193.24 154.181 197.609 154.804C199.659 150.034 208.349 134.974 234.239 141.584C243.609 143.974 248.349 139.954 250.669 136.164V136.174ZM251.209 385.284C249.669 386.284 248.139 387.284 246.639 388.144L245.349 389.634C242.349 402.634 238.169 411.544 232.659 416.694C228.814 420.352 223.675 422.337 218.369 422.214C217.509 422.214 216.699 422.214 215.949 422.114C211.169 421.784 207.099 417.784 203.739 413.784C202.919 412.784 202.139 411.784 201.399 410.884C201.359 410.855 201.325 410.817 201.299 410.774C200.619 409.914 199.949 409.084 199.299 408.354C198.359 407.234 197.449 406.114 196.549 404.994C195.649 403.874 194.829 402.784 193.999 401.694C193.419 400.904 192.849 400.124 192.279 399.324C189.247 398.887 186.243 398.28 183.279 397.504C183.759 398.224 184.219 398.954 184.719 399.664C185.726 401.144 186.773 402.624 187.859 404.104C189.499 406.344 191.249 408.594 193.069 410.874C193.959 411.994 194.869 413.114 195.809 414.254C196.999 415.664 198.189 417.064 199.439 418.474C203.342 422.985 208.469 426.267 214.199 427.924C221.609 429.974 228.199 428.774 233.769 424.334C240.229 419.244 247.099 408.274 251.209 385.274V385.284ZM245.149 371.004C246.787 355.727 247.535 340.368 247.389 325.004C241.018 330.348 234.271 335.227 227.199 339.604C205.389 353.254 205.439 372.274 205.459 372.474V373.364L198.899 377.634L198.649 374.944C198.649 374.794 196.869 358.354 177.019 341.774C173.739 339.044 170.719 336.384 167.909 333.774C171.264 351.204 177.406 367.979 186.099 383.454C201.189 387.514 217.049 385.674 234.819 377.934C237.759 376.644 240.589 375.284 243.319 373.794C243.899 372.884 244.519 371.954 245.149 370.994V371.004ZM247.099 281.424L246.269 279.424L231.039 242.984L223.569 245.604L240.259 283.704L244.609 282.254L247.099 281.424ZM243.869 456.144C244.629 455.614 245.429 455.064 246.249 454.554C226.329 453.014 213.449 461.554 209.839 464.284C210.909 464.644 211.989 465.044 213.069 465.454C214.969 464.154 226.019 457.174 243.869 456.144ZM244.699 234.784V212.384C244.719 202.19 241.88 192.195 236.505 183.533C231.13 174.871 223.433 167.891 214.289 163.384C205.301 158.771 195.186 156.813 185.126 157.737C175.066 158.661 165.476 162.431 157.479 168.604L157.189 168.824C156.871 169.077 156.616 169.4 156.442 169.767C156.269 170.135 156.182 170.538 156.189 170.944V234.784L200.459 250.294L244.699 234.784ZM237.609 392.874L236.069 393.574C231.877 395.377 227.538 396.815 223.099 397.874C216.226 401.882 208.518 404.243 200.579 404.774C200.969 405.264 201.359 405.774 201.759 406.224C202.439 407.034 203.139 407.914 203.889 408.834C204.259 409.294 204.639 409.784 205.029 410.254C214.599 408.624 226.099 403.934 237.609 392.844V392.874ZM237.179 284.784L220.479 246.714L200.669 253.664L199.869 253.544L181.309 247.054L164.029 287.264L184.159 292.674C194.728 295.533 205.906 295.206 216.289 291.734L237.179 284.784ZM230.439 414.334C234.639 410.424 238.069 403.814 240.719 394.574C229.019 406.054 217.299 411.154 207.469 413.154C210.149 416.154 213.119 418.684 216.189 418.914C222.169 419.334 226.569 417.914 230.439 414.294V414.334ZM222.379 61.3339C227.789 59.9839 238.589 56.5239 245.509 51.9139C237.999 51.0039 222.429 47.9139 215.669 37.7239C213.699 34.6847 211.889 31.5437 210.249 28.3139C206.659 21.5139 204.819 18.0339 195.999 15.8639C186.549 18.9446 176.553 19.9909 166.669 18.9339C163.019 29.6839 164.289 38.0239 166.099 48.1939C171.659 45.9739 187.839 40.6639 198.749 49.1939C205.899 54.7839 214.729 58.7239 222.379 61.2939V61.3339ZM229.749 473.644C232.468 467.627 236.484 462.286 241.509 458.004C232.162 458.757 223.097 461.564 214.959 466.224C220.079 468.285 225.025 470.753 229.749 473.604V473.644ZM231.229 479.594C232.469 479.414 233.719 479.204 234.979 478.994C189.739 447.644 148.469 465.994 143.109 468.584C143.249 469.034 143.399 469.474 143.549 469.924C149.809 467.694 192.169 454.394 231.229 479.554V479.594ZM202.449 482.954C209.449 482.564 218.299 481.554 228.779 479.954C190.629 456.454 149.779 469.444 144.029 471.474C144.259 472.204 144.469 472.974 144.679 473.724C150.37 475.944 156.27 477.585 162.289 478.624C178.139 481.364 191.289 482.864 201.349 483.094L202.449 482.954ZM223.309 110.074C219.119 90.1639 203.489 79.2839 190.809 70.5139C179.709 62.8139 178.039 52.5839 177.859 48.2939C174.031 48.9408 170.285 50.0072 166.689 51.4739C167.864 57.614 168.602 63.8295 168.899 70.0739C169.499 86.0239 163.849 95.7839 159.719 102.914C158.069 105.774 156.639 108.244 156.099 110.354C156.099 110.534 156.019 110.744 155.989 110.934C162.989 108.244 186.069 100.114 200.859 104.244C202.399 104.664 204.009 105.134 205.639 105.594C211.339 107.204 217.309 108.914 223.309 110.034V110.074ZM209.709 399.994C207.839 400.124 205.959 400.224 204.089 400.224C201.619 400.224 199.159 400.094 196.699 399.864C197.159 400.484 197.639 401.094 198.119 401.714C202.036 401.559 205.923 400.969 209.709 399.954V399.994ZM188.449 410.184C186.449 407.554 184.519 404.944 182.699 402.344C177.599 400.017 173.046 396.64 169.339 392.434C166.328 391.04 163.403 389.467 160.579 387.724C159.099 386.814 157.679 385.854 156.279 384.894C158.819 388.919 161.664 392.744 164.789 396.334C170.948 403.415 179.26 408.28 188.449 410.184V410.184ZM178.009 395.894L178.719 396.384C178.649 396.285 178.585 396.182 178.529 396.074C178.349 396.004 178.169 395.964 178.009 395.894V395.894ZM180.579 155.004C178.278 152.063 176.269 148.904 174.579 145.574C171.479 139.644 160.029 137.094 154.309 136.374C153.767 140.743 152.584 145.009 150.799 149.034C147.166 156.51 141.34 162.702 134.099 166.784C140.664 171.171 146.947 175.967 152.909 181.144V170.894C152.902 169.986 153.105 169.088 153.505 168.272C153.904 167.457 154.487 166.745 155.209 166.194L155.519 165.964C162.867 160.344 171.465 156.583 180.579 155.004V155.004ZM160.859 286.384L178.239 245.924L171.769 243.664L155.769 281.864L154.579 284.704L156.289 285.164L160.859 286.384ZM171.859 377.814C174.977 379.484 178.22 380.908 181.559 382.074C172.831 365.847 166.891 348.269 163.989 330.074C160.919 327.074 158.159 324.254 155.669 321.544C156.259 330.444 158.989 351.914 171.899 377.784L171.859 377.814ZM166.969 460.064C168.519 459.854 170.129 459.674 171.779 459.544C161.162 455.176 149.545 453.826 138.209 455.644C138.599 456.534 138.969 457.464 139.359 458.404C142.109 457.834 152.859 456.114 166.989 460.014L166.969 460.064ZM156.869 101.244C160.799 94.4639 166.179 85.1539 165.609 70.1639C165.609 69.4139 165.549 68.7039 165.499 67.9739C164.199 66.5739 158.639 61.6839 148.649 67.1139C144.711 69.3067 141.199 72.1892 138.279 75.6239C135.129 79.0339 132.359 82.0339 126.599 82.0339H126.059C124.059 88.2339 119.619 97.3339 110.149 108.504C117.629 113.504 117.309 122.294 116.899 132.384C116.769 135.544 116.639 138.824 116.719 142.234C117.069 155.454 117.799 155.934 129.799 163.934L131.019 164.744C133.699 163.384 142.899 158.124 147.789 147.674C151.559 139.674 151.789 129.484 151.969 121.334C152.079 116.574 152.179 112.484 152.969 109.544C153.599 106.964 155.099 104.314 156.909 101.244H156.869ZM165.139 63.6039C164.639 58.6639 163.859 54.2339 163.079 49.9139C161.189 39.3339 159.549 30.1239 163.349 18.4539C160.224 17.961 157.135 17.2662 154.099 16.3739C148.479 14.7339 143.879 15.3739 140.099 18.4839C125.369 30.2739 127.869 72.3339 127.899 72.7639C127.901 74.7912 127.628 76.8095 127.089 78.7639C131.089 78.6339 133.089 76.5539 135.989 73.4039C139.149 69.7019 142.95 66.5991 147.209 64.2439C155.679 59.6239 161.749 61.4939 165.179 63.6039H165.139ZM157.719 368.364C160.636 370.742 163.695 372.939 166.879 374.944C153.099 345.284 152.349 322.014 152.329 317.784C147.211 311.985 142.645 305.721 138.689 299.074C139.879 312.444 143.949 340.914 157.759 368.364H157.719ZM152.879 227.234V220.994C148.999 220.184 139.039 217.874 130.879 214.204C130.959 215.744 131.949 218.294 136.549 221.204C139.095 222.79 141.988 223.734 144.979 223.954C147.779 224.294 150.399 224.644 152.919 227.234H152.879ZM152.879 217.664V209.664C149.729 208.264 140.109 203.574 135.469 196.494C132.139 191.404 123.419 190.244 118.559 189.984C121.319 193.744 123.189 197.984 122.389 202.174C121.199 208.604 139.729 214.874 152.919 217.664H152.879ZM152.879 206.084V185.524C146.126 179.377 138.893 173.78 131.249 168.784C130.109 168.004 129.039 167.284 128.049 166.624C115.789 158.474 113.909 157.214 113.519 142.314C113.429 138.804 113.519 135.454 113.689 132.244C114.099 122.244 114.389 114.914 108.029 110.944C107.199 111.944 106.339 112.844 105.429 113.804C87.1594 133.184 93.3794 156.134 101.789 171.964C103.576 175.288 106.043 178.198 109.029 180.504C111.457 182.38 113.728 184.45 115.819 186.694C119.249 186.694 133.139 186.974 138.219 194.694C141.839 200.234 149.209 204.294 152.919 206.084H152.879ZM142.599 466.984C149.092 464.023 155.938 461.909 162.969 460.694C155.439 458.97 147.646 458.718 140.019 459.954C140.909 462.204 141.789 464.544 142.599 466.984ZM139.939 471.694C140.879 472.114 141.819 472.524 142.769 472.924C131.239 433.784 108.189 414.784 103.869 411.554C103.629 413.174 103.329 414.834 102.989 416.554C106.349 418.604 125.439 431.784 139.939 471.694V471.694ZM141.099 350.584C144.232 354.938 147.728 359.02 151.549 362.784C137.959 332.174 135.469 301.994 135.039 293.564L131.579 294.934C132.52 313.797 135.716 332.48 141.099 350.584V350.584ZM135.189 341.344C131.544 326.549 129.278 311.447 128.419 296.234L121.549 298.964C123.215 313.855 127.839 328.264 135.149 341.344H135.189ZM119.969 425.344C120.849 426.434 121.759 427.604 122.679 428.804C118.539 405.514 108.289 395.544 104.949 392.864C104.999 394.004 105.049 395.174 105.049 396.354C106.479 397.784 115.629 407.364 119.929 425.304L119.969 425.344ZM98.0994 433.674C107.401 449.683 121.255 462.563 137.899 470.674C124.379 434.474 106.899 421.004 102.679 418.194C101.521 423.456 99.9909 428.629 98.0994 433.674V433.674ZM117.529 422.404C115.121 413.691 110.86 405.6 105.039 398.684C104.963 402.364 104.679 406.036 104.189 409.684C109.068 413.428 113.525 417.694 117.479 422.404H117.529ZM96.9994 431.784C115.999 378.384 86.9094 345.784 80.9994 339.854C80.8994 341.184 80.7594 342.564 80.5894 344.014C83.5894 347.504 113.029 384.014 94.6394 427.154C95.3594 428.714 96.1494 430.244 96.9994 431.784ZM93.6894 425.154C109.329 386.384 85.9194 353.364 80.2894 346.234C79.3718 352.92 77.9986 359.535 76.1794 366.034L88.9594 412.084C90.2033 416.551 91.7845 420.916 93.6894 425.144V425.154ZM75.3194 362.954C82.0194 336.904 79.1994 320.724 78.1094 316.174L74.6294 317.574C77.0257 329.977 76.5018 342.768 73.0994 354.934L75.3194 362.954ZM72.2494 351.874C74.9238 340.828 75.2102 329.339 73.0894 318.174L63.8994 321.784L72.2494 351.874Z" fill="#0C0C0C"/>
<path d="M340.189 321.783L334.359 342.833C328.009 334.393 331.199 321.423 332.059 318.423L340.189 321.783Z" fill="#C465A8"/>
<path d="M336.799 91.2139C338.699 99.4739 337.219 106.494 335.549 108.834C333.708 110.987 331.702 112.993 329.549 114.834C322.549 121.294 313.839 129.354 319.019 135.264C319.869 136.264 320.749 137.164 321.569 138.044C324.349 140.994 326.739 143.564 326.569 145.824C326.39 146.926 325.848 147.936 325.029 148.694C312.699 152.434 291.619 150.044 283.519 141.384C281.784 139.58 279.716 138.129 277.429 137.114C276.659 134.454 274.179 124.274 278.839 117.284C281.629 113.094 286.619 110.744 293.639 110.284C317.839 108.704 331.639 96.8839 334.529 84.5239C335.506 86.6727 336.267 88.9138 336.799 91.2139V91.2139Z" fill="#F7B5A4"/>
<path d="M333.828 344.784L332.349 350.094C321.099 334.784 325.329 320.784 327.099 316.374L330.508 317.794C329.638 320.784 325.788 335.494 333.828 344.784Z" fill="#75C043"/>
<path d="M331.799 352.043L322.879 384.133C314.649 363.993 324.729 349.293 327.639 345.673C328.845 347.909 330.237 350.04 331.799 352.043V352.043Z" fill="#C465A8"/>
<path d="M317.439 66.8335C323.236 69.8565 328.189 74.2763 331.849 79.6935C331.849 89.8435 321.709 105.223 293.429 107.073C285.349 107.593 279.529 110.443 276.149 115.523C271.619 122.293 272.709 131.163 273.729 135.793C266.829 133.793 259.179 134.023 255.109 134.393C257.799 127.033 256.709 117.523 252.309 111.133C253.801 110.456 255.241 109.671 256.619 108.783C263.619 104.253 267.619 96.8635 271.879 89.0335C278.959 76.0335 286.309 62.5435 308.689 61.3135C311.486 63.3366 314.409 65.1803 317.439 66.8335V66.8335Z" fill="#F2D230"/>
<path d="M325.429 340.833C325.839 341.903 326.309 342.994 326.829 344.104C324.469 346.874 311.639 363.544 322.199 386.624L320.999 390.974C305.289 365.544 321.339 345.333 325.429 340.833Z" fill="#75C043"/>
<path d="M304.639 307.084L325.639 315.764C322.694 323.221 322.422 331.468 324.869 339.104C319.463 345.059 315.645 352.282 313.769 360.104C294.019 373.104 299.089 395.824 299.869 398.824C290.479 411.134 279.759 429.144 276.809 449.824C264.949 447.644 255.759 449.574 248.809 453.154C224.979 450.424 210.269 461.824 208.059 463.674C197.41 460.251 186.232 458.771 175.059 459.304L175.129 459.164C163.423 453.741 150.354 451.978 137.629 454.104C134.101 446.215 129.807 438.693 124.809 431.644C120.399 401.424 106.279 391.644 104.809 390.644C102.509 357.824 82.8093 339.164 81.1493 337.644C81.8793 325.754 80.3893 318.274 79.6693 315.474L106.749 304.744C108.679 313.934 118.639 353.824 149.509 379.594C153.077 386.32 157.391 392.623 162.369 398.384C169.818 406.974 180.193 412.491 191.479 413.864C193.259 416.07 195.126 418.284 197.079 420.504C201.402 425.489 207.078 429.112 213.419 430.934C215.883 431.629 218.429 431.988 220.989 432.004C226.401 432.03 231.655 430.182 235.859 426.774C245.169 419.404 251.549 404.594 255.009 382.534C273.019 369.484 292.229 346.664 304.639 307.084Z" fill="#605CA8"/>
<path d="M320.409 393.064L315.409 411.243C310.122 430.164 298.971 446.921 283.559 459.104C284.749 427.544 312.799 394.283 317.809 388.583C318.529 390.063 319.439 391.554 320.409 393.064Z" fill="#C465A8"/>
<path d="M315.509 383.583C315.929 384.723 316.429 385.854 316.979 387.014C313.399 391.014 282.359 426.764 281.869 460.354C280.509 461.354 279.109 462.354 277.699 463.354C276.199 422.664 309.739 389.053 315.509 383.583Z" fill="#75C043"/>
<path d="M312.009 153.704C314.232 153.704 316.452 153.57 318.659 153.304C316.249 154.684 313.659 155.984 311.279 157.184C303.929 160.874 298.129 163.774 299.279 167.834C299.969 170.2 300.88 172.497 301.999 174.694C302.161 174.94 302.267 175.22 302.308 175.512C302.35 175.804 302.326 176.102 302.239 176.384C302.059 176.674 301.149 177.664 297.059 177.804C291.569 178.004 278.149 179.154 272.229 185.574C271.076 186.786 270.229 188.257 269.759 189.864C259.439 188.564 250.089 196.344 246.599 199.684C244.848 191.754 241.44 184.284 236.599 177.764C240.289 175.304 251.279 168.684 261.549 169.654C279.039 171.314 287.779 154.824 290.109 149.534C297.064 152.348 304.506 153.765 312.009 153.704V153.704Z" fill="#605CA8"/>
<path d="M313.299 362.404C313.039 363.956 312.869 365.522 312.789 367.094C301.949 375.864 303.049 392.154 303.279 394.494C302.579 395.344 301.859 396.254 301.129 397.174C300.029 391.864 297.659 373.784 313.299 362.404Z" fill="#75C043"/>
<path d="M312.749 369.293C312.789 373.589 313.518 377.849 314.909 381.913C311.332 385.297 307.956 388.886 304.799 392.663C304.659 388.093 305.099 376.403 312.749 369.293Z" fill="#C465A8"/>
<path d="M293.919 302.653L301.639 305.833C290.059 342.903 272.499 364.953 255.639 378.063C254.639 378.823 253.639 379.573 252.699 380.273C252.439 380.463 252.179 380.663 251.899 380.833C250.049 382.153 248.219 383.353 246.409 384.463C245.679 384.913 244.939 385.353 244.219 385.773L242.609 386.673C240.055 388.097 237.432 389.392 234.749 390.553C233.749 391.003 232.659 391.413 231.589 391.813C228.379 393.058 225.088 394.08 221.739 394.873C212.683 396.986 203.321 397.456 194.099 396.263C192.639 396.093 191.159 395.843 189.699 395.573C186.636 395.002 183.611 394.247 180.639 393.313C178.999 392.803 177.379 392.253 175.769 391.643C174.159 391.033 172.769 390.433 171.319 389.773C168.979 388.703 166.689 387.493 164.429 386.193C163.719 385.793 162.999 385.403 162.289 384.963C158.696 382.733 155.261 380.257 152.009 377.553C149.729 375.693 147.589 373.723 145.539 371.713C119.539 346.093 111.229 310.713 109.779 303.613L118.369 300.213C119.149 307.343 122.789 330.473 138.139 352.073C139.959 354.623 141.939 357.163 144.139 359.643C147.533 363.541 151.234 367.159 155.209 370.463C157.209 372.103 159.289 373.703 161.499 375.233C162.849 376.173 164.239 377.103 165.689 377.983C166.959 378.773 168.239 379.503 169.519 380.203C171.159 381.093 172.819 381.943 174.519 382.693C177.568 384.083 180.717 385.243 183.939 386.163C185.399 386.583 186.879 386.963 188.349 387.273C192.817 388.249 197.375 388.755 201.949 388.783C212.799 388.783 224.129 386.163 236.069 380.953C237.009 380.543 237.939 380.123 238.849 379.703C240.729 378.823 242.569 377.913 244.369 376.943L245.479 376.323C246.319 375.853 247.149 375.383 247.979 374.883C249.729 373.823 251.449 372.703 253.139 371.483C253.999 370.863 254.859 370.213 255.709 369.563C256.049 369.293 256.369 369.013 256.709 368.753C259.012 366.896 261.193 364.892 263.239 362.753C274.739 350.783 284.599 332.713 293.919 302.653Z" fill="#E0BE2C"/>
<path d="M277.569 28.5336C285.249 38.5336 293.689 49.4536 304.799 58.3736C285.739 60.6736 277.599 72.1236 271.249 83.4436C261.989 71.9336 243.879 66.1336 235.149 64.6236C233.249 64.3036 230.859 63.7836 228.149 63.0536C236.909 60.3736 252.869 54.3436 254.879 45.4436C255.449 42.9936 255.779 40.4436 256.139 37.6336C257.349 28.2136 258.519 19.3136 267.909 16.4736C271.099 20.1736 274.269 24.2536 277.569 28.5336Z" fill="#F7B5A4"/>
<path d="M285.309 299.093L290.919 301.403C284.019 323.673 276.869 339.213 268.989 350.503C275.309 335.783 280.749 318.647 285.309 299.093Z" fill="#605CA8"/>
<path d="M278.099 296.093L282.289 297.833C276.099 324.493 268.619 345.023 260.529 360.783C259.389 361.933 258.259 363.023 257.099 364.063C255.939 365.103 254.759 366.063 253.559 367.063C252.359 368.063 251.009 368.983 249.709 369.873C251.129 367.583 252.519 365.133 253.919 362.533C255.169 360.223 256.409 357.793 257.639 355.223C264.799 340.263 271.699 320.973 278.099 296.093Z" fill="#E0BE2C"/>
<path d="M281.159 143.633C282.905 145.443 284.931 146.959 287.159 148.123C285.159 152.653 277.379 167.873 261.799 166.403C250.139 165.283 238.299 172.613 234.539 175.193C229.372 169.031 222.985 164.005 215.779 160.433C211.077 158.083 206.083 156.367 200.929 155.333C203.059 150.703 210.839 138.943 233.459 144.723C245.349 147.723 251.119 141.723 253.459 137.853C257.179 137.383 273.849 135.783 281.159 143.633Z" fill="#F7B5A4"/>
<path d="M276.589 451.434C276.459 452.434 276.369 453.434 276.269 454.434C251.789 448.434 235.799 471.264 232.999 475.614C232.379 475.204 231.769 474.834 231.129 474.444C232.219 471.744 237.189 460.914 248.819 454.764H248.919V454.784C255.709 451.194 264.749 449.264 276.589 451.434Z" fill="#75C043"/>
<path d="M276.149 456.113C276.003 458.875 276.003 461.642 276.149 464.403C265.756 471.122 254.113 475.673 241.919 477.783C240.339 478.063 238.819 478.303 237.289 478.563C236.289 477.873 235.289 477.183 234.369 476.563C236.949 472.473 252.489 450.123 276.149 456.113Z" fill="#C465A8"/>
<path d="M271.699 293.463L275.049 294.843C269.639 316.003 263.889 333.043 257.929 346.743C258.182 337.05 258.086 326.553 257.639 315.253C267.249 304.913 270.599 296.973 271.699 293.463Z" fill="#605CA8"/>
<path d="M268.859 203.014C270.579 204.894 272.939 208.764 269.639 213.784C267.239 217.434 263.019 218.834 258.529 220.324C254.849 221.544 251.059 222.794 247.939 225.324V220.784C253.099 218.574 263.369 210.974 268.859 203.014Z" fill="#4A4A82"/>
<path d="M269.529 86.5637L269.039 87.4937C265.039 94.9437 261.159 101.974 254.849 106.054C246.349 111.544 236.589 112.054 226.729 110.604C222.669 88.6037 205.379 76.6037 192.659 67.7937C182.439 60.7237 181.179 51.3437 181.079 47.8637C186.439 47.4437 192.219 48.1737 196.749 51.7437C209.129 61.4437 226.359 66.4237 234.589 67.8237C243.169 69.3037 261.249 75.1037 269.529 86.5637Z" fill="#605CA8"/>
<path d="M269.319 193.184C269.639 201.004 255.319 213.494 247.939 217.184V212.314C247.927 209.185 247.666 206.061 247.159 202.974L247.519 203.284C247.639 203.174 258.209 191.684 269.319 193.064V193.184Z" fill="#F7B5A4"/>
<path d="M260.289 288.784L268.669 292.264C267.159 297.084 259.439 315.614 225.479 336.874C218.969 340.82 213.383 346.12 209.099 352.414L205.689 350.064V349.134C205.689 348.974 205.289 333.704 227.259 320.764C240.631 312.849 251.947 301.893 260.289 288.784V288.784Z" fill="#F2D230"/>
<path d="M252.299 285.434L257.229 287.434C249.14 299.901 238.285 310.334 225.509 317.924C204.709 330.204 202.509 344.444 202.369 348.294L201.839 348.634C200.989 343.144 197.029 330.934 178.889 320.234C165.845 312.478 154.805 301.767 146.659 288.964L149.849 287.694L151.279 287.134L153.369 287.694L159.559 289.354L162.729 290.214L183.319 295.784C194.504 298.801 206.33 298.453 217.319 294.784L238.469 287.734L241.569 286.734L248.339 284.474L249.179 284.194L252.299 285.434Z" fill="#605CA8"/>
<path d="M265.579 13.7838C255.449 17.6838 254.099 28.0138 252.929 37.2138C252.569 39.8938 252.249 42.4238 251.729 44.7338C251.274 46.3561 250.373 47.8182 249.129 48.9538C245.279 48.6938 225.579 46.7738 218.379 35.8938C216.457 32.9537 214.695 29.9126 213.099 26.7838C210.019 20.9238 207.789 16.7138 201.019 14.0238C205.003 12.3967 208.881 10.5196 212.629 8.40382C213.749 7.78382 214.729 7.24382 215.179 7.07382C223.959 3.78382 252.169 -0.746181 265.579 13.7838Z" fill="#605CA8"/>
<path d="M254.489 318.494C254.939 332.084 254.879 344.024 254.389 354.494C252.649 358.084 250.879 361.414 249.109 364.494C250.219 352.354 250.719 338.264 250.619 322.134C251.999 320.894 253.289 319.68 254.489 318.494Z" fill="#E0BE2C"/>
<path d="M249.189 112.394C254.099 118.774 254.829 129.394 250.669 136.164C248.349 139.954 243.609 143.974 234.239 141.574C208.349 134.964 199.659 150.024 197.609 154.794C193.24 154.171 188.813 154.067 184.419 154.484C181.644 151.329 179.291 147.826 177.419 144.064C173.279 136.164 159.479 133.764 154.669 133.144C155.059 129.054 155.169 125.024 155.259 121.374C155.319 118.884 155.369 116.584 155.519 114.584C158.839 113.234 184.809 103.104 199.979 107.324L204.739 108.684C218.349 112.604 234.819 117.324 249.189 112.394Z" fill="#605CA8"/>
<path d="M246.639 388.134C248.139 387.254 249.639 386.294 251.209 385.274C247.129 408.274 240.209 419.274 233.829 424.274C228.239 428.714 221.669 429.914 214.259 427.864C208.529 426.207 203.402 422.925 199.499 418.414C198.249 417.004 197.059 415.604 195.869 414.194C194.929 413.054 194.019 411.934 193.129 410.814C191.309 408.534 189.559 406.284 187.919 404.044C186.839 402.564 185.793 401.084 184.779 399.604C184.279 398.894 183.779 398.164 183.339 397.444C186.303 398.22 189.307 398.827 192.339 399.264C192.909 400.064 193.479 400.844 194.059 401.634C194.886 402.727 195.736 403.827 196.609 404.934C197.509 406.054 198.419 407.174 199.359 408.294C199.989 409.024 200.659 409.854 201.359 410.714C201.385 410.757 201.419 410.795 201.459 410.824C202.199 411.754 202.979 412.744 203.799 413.724C207.189 417.724 211.229 421.724 216.009 422.064C216.759 422.134 217.569 422.164 218.429 422.164C223.735 422.287 228.874 420.302 232.719 416.644C238.229 411.494 242.449 402.534 245.409 389.584L246.639 388.134Z" fill="#E0BE2C"/>
<path d="M247.389 324.974C247.534 340.338 246.786 355.697 245.149 370.974C244.519 371.974 243.899 372.864 243.269 373.774C240.539 375.264 237.709 376.624 234.769 377.914C216.999 385.654 201.139 387.494 186.049 383.434C177.376 367.965 171.251 351.201 167.909 333.784C170.719 336.364 173.739 339.024 177.019 341.784C196.869 358.364 198.639 374.784 198.649 374.954L198.899 377.644L205.459 373.374V372.484C205.459 372.284 205.389 353.264 227.199 339.614C234.271 335.225 241.019 330.332 247.389 324.974V324.974Z" fill="#605CA8"/>
<path d="M246.269 279.424L247.099 281.424L244.609 282.254L240.259 283.704L223.569 245.594L231.039 242.984L246.269 279.424Z" fill="#EF9634"/>
<path d="M246.249 454.553C245.429 455.063 244.629 455.613 243.869 456.143C226.019 457.143 214.969 464.143 213.069 465.453C211.989 465.043 210.909 464.643 209.839 464.283C213.449 461.523 226.329 453.013 246.249 454.553Z" fill="#75C043"/>
<path d="M244.699 212.354V234.784L200.439 250.294L156.169 234.784V170.894C156.162 170.487 156.248 170.085 156.422 169.717C156.595 169.349 156.851 169.027 157.169 168.774L157.459 168.554C165.456 162.38 175.045 158.611 185.105 157.687C195.165 156.762 205.281 158.721 214.269 163.334C223.419 167.839 231.122 174.822 236.501 183.487C241.88 192.153 244.721 202.154 244.699 212.354V212.354Z" fill="#F1A64B"/>
<path d="M236.099 393.543L237.639 392.843C226.079 403.933 214.639 408.623 205.099 410.253C204.709 409.783 204.329 409.253 203.959 408.833C203.209 407.913 202.509 407.033 201.829 406.223C201.429 405.753 201.039 405.223 200.649 404.773C208.587 404.243 216.296 401.881 223.169 397.873C227.595 396.803 231.921 395.354 236.099 393.543V393.543Z" fill="#E0BE2C"/>
<path d="M220.479 246.673L237.179 284.783L216.289 291.783C205.905 295.255 194.727 295.582 184.159 292.723L164.029 287.313L181.309 247.103L199.869 253.593L200.669 253.713L220.479 246.673Z" fill="#F1A64B"/>
<path d="M240.719 394.534C238.069 403.774 234.639 410.384 230.439 414.294C226.569 417.914 222.169 419.294 216.189 418.874C213.119 418.644 210.189 416.084 207.469 413.114C217.299 411.114 229.019 406.014 240.719 394.534Z" fill="#605CA8"/>
<path d="M245.509 51.8737C238.589 56.4837 227.789 59.9437 222.379 61.2937C214.729 58.7237 205.899 54.7837 198.749 49.1837C187.839 40.6237 171.659 45.9337 166.099 48.1837C164.289 38.0137 163.019 29.6737 166.669 18.9237C176.558 19.9581 186.554 18.888 195.999 15.7837C204.819 17.9537 206.659 21.4337 210.249 28.2337C211.889 31.4635 213.698 34.6045 215.669 37.6437C222.429 47.8837 237.999 50.9637 245.509 51.8737Z" fill="#F7B5A4"/>
<path d="M241.509 457.963C236.484 462.246 232.468 467.587 229.749 473.603C225.026 470.738 220.08 468.257 214.959 466.183C223.097 461.523 232.162 458.716 241.509 457.963V457.963Z" fill="#C465A8"/>
<path d="M234.979 478.953C233.719 479.163 232.469 479.373 231.229 479.553C192.169 454.393 149.809 467.693 143.549 469.883C143.399 469.433 143.249 468.993 143.109 468.543C148.469 465.923 189.739 447.603 234.979 478.953Z" fill="#75C043"/>
<path d="M228.779 479.923C218.299 481.513 209.469 482.523 202.449 482.923L201.349 483.073C191.279 482.843 178.139 481.343 162.289 478.603C156.269 477.565 150.37 475.923 144.679 473.703C144.469 472.953 144.259 472.183 144.029 471.453C149.779 469.413 190.629 456.423 228.779 479.923Z" fill="#C465A8"/>
<path d="M190.809 70.4739C203.489 79.2439 219.119 90.1239 223.309 110.034C217.309 108.914 211.309 107.204 205.639 105.554C204.009 105.094 202.399 104.624 200.859 104.204C186.069 100.074 162.999 108.204 155.989 110.894C155.989 110.704 156.069 110.494 156.099 110.314C156.639 108.204 158.099 105.734 159.719 102.874C163.849 95.7439 169.499 85.9839 168.899 70.0339C168.602 63.7895 167.863 57.574 166.689 51.4339C170.284 49.9672 174.03 48.9008 177.859 48.2539C178.039 52.5439 179.709 62.7839 190.809 70.4739Z" fill="#F2D230"/>
<path d="M205.639 350.064L209.049 352.414C205.145 358.094 202.79 364.695 202.219 371.564L201.449 372.064C200.189 366.564 195.579 353.064 179.099 339.264C151.099 315.894 141.099 297.324 138.719 292.134L143.589 290.194C151.981 303.711 163.524 314.993 177.229 323.074C199.229 336.014 198.799 351.294 198.799 351.444L198.639 354.624L205.639 350.064Z" fill="#F2D230"/>
<path d="M204.099 400.184C205.969 400.184 207.849 400.084 209.719 399.954C205.922 400.958 202.024 401.535 198.099 401.674C197.619 401.054 197.099 400.444 196.679 399.824C199.159 400.054 201.619 400.184 204.099 400.184Z" fill="#605CA8"/>
<path d="M182.699 402.344C184.519 404.944 186.419 407.554 188.449 410.184C179.259 408.28 170.948 403.415 164.789 396.334C161.663 392.744 158.818 388.92 156.279 384.894C157.679 385.894 159.099 386.814 160.579 387.724C163.402 389.467 166.327 391.04 169.339 392.434C173.045 396.64 177.598 400.017 182.699 402.344V402.344Z" fill="#E0BE2C"/>
<path d="M174.549 145.574C176.238 148.905 178.248 152.063 180.549 155.004C171.434 156.597 162.84 160.371 155.499 166.004L155.189 166.234C154.467 166.785 153.883 167.497 153.484 168.313C153.085 169.128 152.881 170.026 152.889 170.934V181.164C146.933 175.981 140.658 171.179 134.099 166.784C141.322 162.701 147.133 156.517 150.759 149.054C152.544 145.029 153.727 140.763 154.269 136.394C159.999 137.094 171.449 139.644 174.549 145.574Z" fill="#F2D230"/>
<path d="M178.239 245.924L160.859 286.384L156.329 285.164L154.619 284.704L155.809 281.864L171.769 243.664L178.239 245.924Z" fill="#EF9634"/>
<path d="M181.599 382.074C178.26 380.908 175.017 379.483 171.899 377.814C158.989 351.914 156.259 330.444 155.709 321.574C158.199 324.284 160.959 327.134 164.029 330.104C166.935 348.289 172.874 365.856 181.599 382.074V382.074Z" fill="#E0BE2C"/>
<path d="M171.819 459.544C170.169 459.674 168.559 459.854 167.009 460.064C152.879 456.164 142.129 457.884 139.379 458.454C138.989 457.514 138.619 456.584 138.229 455.694C149.566 453.856 161.191 455.189 171.819 459.544V459.544Z" fill="#75C043"/>
<path d="M165.649 70.1635C166.219 85.1635 160.839 94.4635 156.909 101.243C155.139 104.313 153.599 106.963 152.969 109.513C152.219 112.453 152.119 116.513 151.969 121.303C151.789 129.453 151.559 139.613 147.789 147.643C142.899 158.093 133.699 163.353 131.019 164.713L129.799 163.903C117.799 155.903 117.069 155.423 116.719 142.203C116.639 138.793 116.719 135.513 116.899 132.353C117.309 122.263 117.629 113.443 110.149 108.473C119.619 97.3035 124.029 88.2035 126.059 82.0035H126.599C132.359 82.0035 135.129 79.0035 138.279 75.5935C141.198 72.1587 144.71 69.2763 148.649 67.0835C158.649 61.6535 164.199 66.5435 165.499 67.9435C165.589 68.7035 165.619 69.4135 165.649 70.1635Z" fill="#F7B5A4"/>
<path d="M163.099 49.9135C163.879 54.2335 164.659 58.6635 165.159 63.6035C161.729 61.4935 155.659 59.6035 147.159 64.2535C142.9 66.6087 139.099 69.7115 135.939 73.4135C133.029 76.5635 131.079 78.6435 127.039 78.7735C127.578 76.8191 127.851 74.8009 127.849 72.7735C127.849 72.3435 125.319 30.2835 140.049 18.4935C143.859 15.4235 148.459 14.7435 154.049 16.3835C157.108 17.2788 160.221 17.9736 163.369 18.4635C159.589 30.1235 161.229 39.3335 163.099 49.9135Z" fill="#605CA8"/>
<path d="M166.919 374.944C163.734 372.939 160.675 370.742 157.759 368.364C143.949 340.914 139.879 312.444 138.689 299.064C142.644 305.714 147.21 311.982 152.329 317.784C152.349 322.014 153.099 345.284 166.919 374.944Z" fill="#605CA8"/>
<path d="M152.919 220.994V227.234C150.399 224.644 147.779 224.294 145.059 223.934C142.068 223.714 139.175 222.771 136.629 221.184C132.029 218.294 131.039 215.744 130.959 214.184C139.099 217.874 149.039 220.184 152.919 220.994Z" fill="#4A4A82"/>
<path d="M152.919 209.673V217.673C139.729 214.883 121.199 208.613 122.429 202.193C123.229 198.003 121.359 193.763 118.599 190.003C123.459 190.263 132.179 191.423 135.509 196.513C140.149 203.583 149.769 208.273 152.919 209.673Z" fill="#F7B5A4"/>
<path d="M152.919 185.523V206.083C149.209 204.293 141.839 200.233 138.219 194.713C133.139 186.953 119.219 186.623 115.819 186.713C113.727 184.469 111.456 182.399 109.029 180.523C106.042 178.217 103.575 175.307 101.789 171.983C93.3785 156.153 87.1585 133.203 105.429 113.823C106.339 112.823 107.199 111.913 108.029 110.963C114.389 114.963 114.099 122.303 113.689 132.263C113.559 135.473 113.429 138.823 113.519 142.333C113.909 157.233 115.789 158.493 128.049 166.643C129.049 167.303 130.109 168.023 131.249 168.803C138.905 173.791 146.152 179.382 152.919 185.523V185.523Z" fill="#605CA8"/>
<path d="M162.969 460.694C155.937 461.909 149.091 464.023 142.599 466.984C141.789 464.544 140.909 462.204 140.019 459.984C147.643 458.739 155.436 458.98 162.969 460.694V460.694Z" fill="#C465A8"/>
<path d="M142.769 472.924C141.819 472.524 140.879 472.114 139.939 471.694C125.439 431.784 106.349 418.604 102.989 416.524C103.329 414.834 103.629 413.174 103.869 411.524C108.189 414.784 131.239 433.784 142.769 472.924Z" fill="#75C043"/>
<path d="M151.549 362.784C147.727 359.02 144.231 354.938 141.099 350.584C135.732 332.492 132.549 313.822 131.619 294.974L135.079 293.604C135.469 302.034 137.959 332.214 151.549 362.784Z" fill="#E0BE2C"/>
<path d="M128.379 296.234C129.238 311.447 131.504 326.549 135.149 341.344C127.825 328.267 123.188 313.858 121.509 298.964L128.379 296.234Z" fill="#605CA8"/>
<path d="M122.639 428.784C121.719 427.584 120.809 426.414 119.929 425.324C115.629 407.384 106.479 397.794 105.009 396.324C105.009 395.144 104.959 393.973 104.909 392.833C108.249 395.503 118.499 405.474 122.639 428.784Z" fill="#75C043"/>
<path d="M137.849 470.703C121.205 462.592 107.351 449.713 98.0492 433.703C99.9394 428.668 101.47 423.505 102.629 418.253C106.809 421.033 124.329 434.503 137.849 470.703Z" fill="#C465A8"/>
<path d="M104.989 398.684C110.81 405.6 115.07 413.691 117.479 422.404C113.495 417.699 109.008 413.444 104.099 409.714C104.604 406.057 104.901 402.375 104.989 398.684V398.684Z" fill="#C465A8"/>
<path d="M80.9687 339.843C86.9087 345.753 115.969 378.373 96.9687 431.773C96.1187 430.243 95.3287 428.713 94.5787 427.143C112.969 383.973 83.4987 347.493 80.5287 344.003C80.7287 342.553 80.8687 341.173 80.9687 339.843Z" fill="#75C043"/>
<path d="M80.2891 346.224C85.9191 353.354 109.289 386.374 93.6891 425.144C91.7837 420.913 90.2025 416.544 88.9591 412.074L76.1791 366.024C77.9983 359.525 79.3715 352.91 80.2891 346.224Z" fill="#C465A8"/>
<path d="M78.099 316.164C79.189 320.714 82.009 336.894 75.309 362.944L73.099 354.944C76.4997 342.774 77.0201 329.979 74.619 317.574L78.099 316.164Z" fill="#75C043"/>
<path d="M73.0988 318.164C75.2196 329.329 74.9332 340.818 72.2588 351.864L63.8988 321.784L73.0988 318.164Z" fill="#C465A8"/>
</svg>
