<svg width="363" height="361" viewBox="0 0 363 361" fill="none" xmlns="http://www.w3.org/2000/svg">
<path d="M165.641 326.069C246.113 326.069 311.35 260.894 311.35 180.497C311.35 100.099 246.113 34.9238 165.641 34.9238C85.1676 34.9238 19.9313 100.099 19.9313 180.497C19.9313 260.894 85.1676 326.069 165.641 326.069Z" fill="#7A66AD"/>
<path d="M269.191 286.165C321 286.165 363 244.205 363 192.444C363 140.683 321 98.7227 269.191 98.7227C217.381 98.7227 175.382 140.683 175.382 192.444C175.382 244.205 217.381 286.165 269.191 286.165Z" fill="#F5D43C"/>
<path d="M280.087 226.121L253.431 278.357C255.579 268.691 257.134 258.903 258.088 249.047L279.388 204.164C279.802 210.925 280.08 218.327 280.087 226.121Z" fill="#117DA7"/>
<path d="M250.429 289.464L280.051 231.414C279.73 252.374 277.334 275.55 270.453 296.082L241.708 308.856C245.223 303.499 248.09 296.88 250.429 289.464Z" fill="#F5D43C"/>
<path d="M279.189 177.397C282.797 204.57 289.507 280.95 259.222 324.623L259.043 324.872L189.252 361H187.626L186.199 360.288L184.631 359.482L114.917 323.568L114.739 323.333C109.458 315.555 105.227 307.116 102.153 298.234C102.081 298.006 102.003 297.778 101.932 297.557C94.123 275.329 91.6557 249.86 91.4988 227.289C91.4988 227.076 91.4988 226.862 91.4988 226.655C91.456 217.116 91.8197 208.132 92.3688 200.11C92.3612 200.034 92.3612 199.958 92.3688 199.882C92.9749 190.962 93.795 183.303 94.5509 177.54C94.5509 177.298 94.6079 177.062 94.6364 176.827C95.4922 170.244 96.2053 166.319 96.2409 166.141L96.3693 165.428L144.433 152.191L148.098 151.172L161.048 113.47L146.13 100.14L157.219 68.9997L148.726 54.6085H146.365V18.2741L182.734 6.27659C182.616 6.01765 182.516 5.75106 182.434 5.47866C182.27 4.88446 182.186 4.27113 182.185 3.65481C182.18 3.03571 182.264 2.41913 182.434 1.82384C182.622 1.15883 182.942 0.538509 183.375 0C183.803 0.539244 184.116 1.1598 184.295 1.82384C184.47 2.41849 184.559 3.03505 184.559 3.65481C184.56 4.27228 184.471 4.88657 184.295 5.47866C184.214 5.75015 184.116 6.01659 184.003 6.27659L221.955 18.2527H222.04V54.5871H219.63L211.137 68.9783L222.233 100.112L208.306 113.071L221.263 150.83L221.584 150.916L225.271 151.956L258.566 161.382H258.765V161.453L277.577 166.718L277.712 167.43C277.748 167.623 278.361 171.064 279.139 176.891C279.153 177.062 279.16 177.226 279.189 177.397ZM253.431 278.357L280.087 226.114C280.087 218.32 279.802 210.918 279.374 204.135L258.074 249.019C257.126 258.884 255.575 268.681 253.431 278.357V278.357ZM280.051 231.407L250.429 289.457C248.09 296.873 245.223 303.492 241.708 308.849L270.446 296.083C277.335 275.55 279.716 252.374 280.051 231.414V231.407ZM258.73 242.151L279.053 199.276C278.518 192.116 277.869 185.854 277.235 180.831L260.17 211.252C260.027 221.105 259.6 231.628 258.73 242.158V242.151ZM260.213 206.337L276.743 176.913C276.172 172.745 275.694 169.853 275.48 168.584L258.958 163.904C259.386 170.159 260.334 186.452 260.213 206.344V206.337ZM269.398 299.16L238.82 312.746L188.439 358.257L188.774 358.563L257.375 323.034C262.391 315.624 266.432 307.601 269.398 299.16V299.16ZM237.308 310.916C263.315 278.542 257.503 177.611 256.562 163.227L229.05 155.44L184.16 244.089L140.504 155.704L116.907 162.229C116.636 166.098 115.331 185.911 115.673 210.326V210.597C115.851 222.416 116.386 235.283 117.67 247.936C117.67 248.121 117.705 248.328 117.727 248.527C119.153 262.292 121.342 275.764 124.787 287.284C124.929 287.776 125.086 288.26 125.236 288.709C127.96 297.45 131.426 304.974 135.797 310.552C135.847 310.616 135.89 310.688 135.94 310.745L136.068 310.908L186.699 356.647L237.308 310.916ZM184.203 238.774L226.683 154.784L222.204 153.516L221.726 153.388L220.621 153.837L220.136 154.799L184.16 225.907L149.218 155.205L148.59 153.908L147.955 153.645L147.178 153.858L142.8 155.062L184.203 238.774ZM219.651 52.1933V20.6251H148.718V52.1933H219.651ZM219.444 99.4138L208.505 68.7148L216.856 54.5657H151.514L159.85 68.7148L148.925 99.3995L178.762 126.03L184.966 131.516L219.444 99.4138ZM219.059 151.664L218.489 149.99L206.366 114.817L202.087 118.778L214.16 153.93L217.997 152.341L218.853 151.985L219.059 151.664ZM215.708 158.29L217.248 155.24L214.98 156.174L212.784 157.093L188.053 167.345C185.571 168.354 182.789 168.341 180.316 167.309L156.17 157.114L153.981 156.188L151.956 155.333L153.318 158.112L153.553 158.575L184.217 220.607L215.28 159.18L215.708 158.29ZM153.946 18.2527H214.053L183.39 8.56352L153.946 18.2527ZM212.014 154.849L200.226 120.552L185.009 134.729L177.164 127.797L168.807 120.338L156.955 154.856L181.243 165.122C182.178 165.51 183.18 165.71 184.192 165.71C185.204 165.71 186.206 165.51 187.141 165.122L212.014 154.849ZM116.557 321.716L181.486 355.158L134.292 312.497L105.183 299.559C108.06 307.379 111.88 314.819 116.557 321.716V321.716ZM154.759 153.93L166.881 118.614L162.988 115.152L150.865 150.382L150.294 152.049L151.628 152.604L154.759 153.93ZM104.057 296.46L131.533 308.664C127.839 302.965 124.858 295.897 122.455 287.932L93.9305 232.02C94.3797 253.051 96.9683 276.149 104.057 296.46V296.46ZM93.8663 226.641L119.681 277.224C117.614 267.636 116.114 257.935 115.188 248.171L94.4582 204.463C94.066 211.388 93.8164 218.84 93.8663 226.67V226.641ZM94.7648 199.568L114.568 241.317C113.726 230.837 113.32 220.393 113.142 210.682L96.4905 180.988C95.9058 186.175 95.264 192.494 94.7648 199.625V199.568ZM114.475 162.814L98.4658 167.224C98.2234 168.649 97.6671 172.068 97.0396 177.005L113.17 205.724C113.035 184.906 114.104 168.1 114.475 162.871V162.814Z" fill="#161A21"/>
<path d="M279.053 199.276L258.73 242.129C259.6 231.599 260.027 221.077 260.156 211.252L277.22 180.831C277.869 185.882 278.518 192.152 279.053 199.276Z" fill="#25469A"/>
<path d="M276.743 176.92L260.213 206.344C260.334 186.395 259.386 170.159 258.958 163.911L275.48 168.591C275.694 169.86 276.151 172.752 276.743 176.92Z" fill="#F5D43C"/>
<path d="M238.82 312.746L269.398 299.16C266.436 307.6 262.4 315.624 257.389 323.034L188.788 358.563L188.453 358.257L238.82 312.746Z" fill="#8474B5"/>
<path d="M256.519 163.227C257.496 177.611 263.308 278.542 237.265 310.916L186.634 356.654L136.004 310.916L135.875 310.752C135.825 310.695 135.783 310.623 135.733 310.559C131.361 304.981 127.889 297.458 125.172 288.716C125.022 288.239 124.865 287.754 124.722 287.291C121.278 275.771 119.053 262.299 117.663 248.534C117.663 248.335 117.663 248.128 117.606 247.943C116.351 235.29 115.787 222.423 115.609 210.604V210.333C115.267 185.918 116.572 166.105 116.843 162.237L140.439 155.732L184.16 244.089L229 155.44L256.519 163.227ZM246.386 196.263V178.751H228.857V196.263H246.386ZM235.012 227.432V209.913H217.462V227.432H235.012ZM192.938 286.757V269.238H175.41V286.757H192.938ZM185.344 300.927V290.241H182.969V300.927H185.344ZM185.344 265.725V255.039H182.969V265.725H185.344ZM152.541 227.432V209.913H135.034V227.432H152.541ZM141.694 196.263V178.751H124.202V196.263H141.694Z" fill="#7A66AD"/>
<path d="M246.386 178.751V196.263H228.857V178.751H246.386ZM244.011 193.89V181.123H231.225V193.89H244.011Z" fill="#625791"/>
<path d="M244.011 181.123V193.89H231.225V181.123H244.011ZM242.064 191.945V183.068H233.179V191.945H242.064Z" fill="#117DA7"/>
<path d="M242.064 183.068V191.945H233.179V183.068H242.064ZM239.69 189.573V185.441H235.554V189.573H239.69Z" fill="#126580"/>
<path d="M239.69 185.441H235.554V189.573H239.69V185.441Z" fill="#ED1E32"/>
<path d="M235.012 209.913V227.432H217.462V209.913H235.012ZM232.651 225.052V212.286H219.815V225.052H232.651Z" fill="#625791"/>
<path d="M232.651 212.285V225.052H219.815V212.285H232.651ZM230.697 223.107V214.237H221.791V223.114L230.697 223.107Z" fill="#117DA7"/>
<path d="M230.676 214.238V223.115H221.791V214.238H230.676ZM228.294 220.742V216.61H224.165V220.742H228.294Z" fill="#126580"/>
<path d="M228.301 216.603H224.165V220.735H228.301V216.603Z" fill="#ED1E32"/>
<path d="M226.683 154.785L184.203 238.774L142.828 155.062L147.185 153.858L147.97 153.645L148.604 153.908L149.232 155.205L184.167 225.907L220.136 154.799L220.621 153.837L221.726 153.388L222.204 153.516L226.683 154.785Z" fill="#F5D43C"/>
<path d="M219.651 20.625V52.1932H148.719V20.625H219.651ZM191.127 48.8305V43.1808C191.137 42.2701 190.993 41.3643 190.699 40.5021C190.029 38.6283 188.809 37.5383 187.134 37.3459L185.879 37.2035L186.592 38.2579C186.592 38.2935 189.052 42.0837 187.783 48.1109L187.626 48.8233L191.127 48.8305ZM181.094 38.265L181.807 37.2106L180.537 37.3531C178.897 37.5454 177.685 38.6355 177.007 40.5092C176.714 41.3714 176.569 42.2773 176.58 43.188V48.8376H180.074L179.917 48.1251C178.619 42.0837 181.065 38.265 181.094 38.265Z" fill="#EE2843"/>
<path d="M208.505 68.7147L219.452 99.4137L184.966 131.516L178.762 126.03L148.925 99.3995L159.85 68.7147L151.514 54.5657H216.856L208.505 68.7147Z" fill="#F1A64B"/>
<path d="M218.482 149.99L219.059 151.664L218.902 151.985L218.047 152.341L214.21 153.937L202.137 118.778L206.395 114.817L218.482 149.99Z" fill="#EF9634"/>
<path d="M217.248 155.24L215.708 158.29L215.266 159.18L184.203 220.607L153.539 158.575L153.304 158.112L151.942 155.333L153.967 156.188L156.156 157.114L180.302 167.309C182.775 168.341 185.557 168.354 188.039 167.345L212.77 157.093L214.966 156.174L217.248 155.24ZM199.62 182.947V174.07H190.749V182.947H199.62ZM178.17 182.947V174.07H169.285V182.947H178.17Z" fill="#117DA7"/>
<path d="M214.053 18.2526H153.945L183.368 8.56348L214.053 18.2526Z" fill="#ED1E32"/>
<path d="M200.226 120.552L212.014 154.849L187.141 165.15C186.206 165.539 185.204 165.738 184.192 165.738C183.18 165.738 182.178 165.539 181.243 165.15L156.955 154.884L168.807 120.366L177.186 127.826L185.03 134.758L200.226 120.552Z" fill="#F1A64B"/>
<path d="M199.62 174.07V182.947H190.749V174.07H199.62ZM197.245 180.575V176.478H193.124V180.61L197.245 180.575Z" fill="#126580"/>
<path d="M197.245 176.443H193.124V180.575H197.245V176.443Z" fill="#F5D43C"/>
<path d="M192.96 269.238V286.757H175.41V269.238H192.96ZM190.578 284.384V271.61H177.792V284.384H190.578Z" fill="#625791"/>
<path d="M191.155 43.1809V48.8306H187.661L187.818 48.1181C189.087 42.0909 186.649 38.3007 186.627 38.2651L185.914 37.2107L187.169 37.3532C188.824 37.5455 190.022 38.6356 190.735 40.5093C191.025 41.3697 191.167 42.273 191.155 43.1809V43.1809ZM189.965 47.6479V43.1809C189.973 42.403 189.848 41.6294 189.594 40.894C189.379 40.1393 188.936 39.4697 188.324 38.9775C189.389 41.7283 189.661 44.7222 189.109 47.6194L189.965 47.6479Z" fill="white"/>
<path d="M190.578 271.61V284.384H177.792V271.61H190.578ZM188.617 282.439V273.562H179.746V282.439H188.617Z" fill="#F5D43C"/>
<path d="M189.965 43.1809V47.6479H189.109C189.666 44.7415 189.395 41.737 188.325 38.9775C188.931 39.4622 189.374 40.1212 189.594 40.8655C189.851 41.61 189.977 42.3935 189.965 43.1809V43.1809Z" fill="white"/>
<path d="M188.624 273.562V282.439H179.746V273.562H188.624ZM186.249 280.06V275.935H182.128V280.06H186.249Z" fill="#DBBA31"/>
<path d="M186.249 275.935H182.128V280.067H186.249V275.935Z" fill="#ED1E32"/>
<path d="M185.365 290.269H182.99V300.927H185.365V290.269Z" fill="#625791"/>
<path d="M185.365 255.067H182.99V265.725H185.365V255.067Z" fill="#625791"/>
<path d="M181.792 37.2036L181.079 38.258C181.079 38.2936 178.605 42.0838 179.888 48.1111L180.045 48.8235H176.551V43.181C176.541 42.2703 176.685 41.3645 176.979 40.5022C177.642 38.6285 178.869 37.5385 180.509 37.3461L181.792 37.2036ZM177.742 47.648H178.598C178.032 44.7414 178.307 41.7339 179.389 38.9776C178.787 39.4676 178.343 40.1244 178.113 40.8655C177.865 41.6021 177.744 42.3755 177.756 43.1525L177.742 47.648Z" fill="white"/>
<path d="M181.486 355.158L116.557 321.716C111.88 314.819 108.06 307.379 105.183 299.559L134.292 312.497L181.486 355.158Z" fill="#8474B5"/>
<path d="M178.612 47.6479H177.742V43.1809C177.73 42.4039 177.851 41.6306 178.098 40.894C178.327 40.1407 178.777 39.4732 179.389 38.9775C178.311 41.7353 178.042 44.7427 178.612 47.6479V47.6479Z" fill="white"/>
<path d="M178.17 174.07V182.947H169.285V174.07H178.17ZM175.795 180.575V176.478H171.659V180.61L175.795 180.575Z" fill="#126580"/>
<path d="M175.795 176.443H171.659V180.575H175.795V176.443Z" fill="#F5D43C"/>
<path d="M166.896 118.614L154.759 153.937L151.671 152.626L150.337 152.07L150.323 152.049L150.893 150.381L163.002 115.151L166.896 118.614Z" fill="#EF9634"/>
<path d="M152.583 209.913V227.432H135.034V209.913H152.583ZM150.209 225.052V212.286H137.416V225.052H150.209Z" fill="#625791"/>
<path d="M150.209 212.285V225.052H137.416V212.285H150.209ZM148.248 223.107V214.237H139.362V223.114L148.248 223.107Z" fill="#117DA7"/>
<path d="M148.248 214.238V223.115H139.362V214.238H148.248ZM145.873 220.742V216.61H141.737V220.742H145.873Z" fill="#126580"/>
<path d="M145.873 216.603H141.737V220.735H145.873V216.603Z" fill="#ED1E32"/>
<path d="M141.737 178.751V196.263H124.202V178.751H141.737ZM139.362 193.89V181.123H126.576V193.89H139.362Z" fill="#625791"/>
<path d="M139.363 181.123V193.89H126.577V181.123H139.363ZM137.416 191.945V183.068H128.538V191.945H137.416Z" fill="#117DA7"/>
<path d="M137.416 183.068V191.945H128.538V183.068H137.416ZM135.034 189.573V185.441H130.905V189.573H135.034Z" fill="#126580"/>
<path d="M135.041 185.441H130.905V189.573H135.041V185.441Z" fill="#ED1E32"/>
<path d="M131.533 308.664L104.057 296.46C96.9683 276.149 94.3797 253.051 93.9233 232.02L122.448 287.932C124.858 295.897 127.824 302.979 131.533 308.664Z" fill="#F5D43C"/>
<path d="M119.681 277.274L93.8663 226.691C93.8163 218.854 94.0659 211.38 94.4581 204.534L115.188 248.242C116.114 257.999 117.615 267.693 119.681 277.274Z" fill="#117DA7"/>
<path d="M114.568 241.374L94.7649 199.625C95.2641 192.501 95.9058 186.174 96.5262 181.023L113.177 210.718C113.32 220.45 113.726 230.894 114.568 241.374Z" fill="#25469A"/>
<path d="M98.4658 167.281L114.475 162.871C114.104 168.1 113.049 184.906 113.142 205.781L97.0111 177.062C97.6672 172.125 98.2234 168.705 98.4658 167.281Z" fill="#F5D43C"/>
<path d="M58.5889 334.227C90.9466 334.227 117.178 308.02 117.178 275.693C117.178 243.365 90.9466 217.159 58.5889 217.159C26.2311 217.159 0 243.365 0 275.693C0 308.02 26.2311 334.227 58.5889 334.227Z" fill="#EE2843"/>
</svg>
