<svg width="24" height="24" viewBox="0 0 24 24" fill="none" xmlns="http://www.w3.org/2000/svg">
<path fill-rule="evenodd" clip-rule="evenodd" d="M13.6347 20.7275V12.7662H16.3581L16.7666 9.66268H13.6347V7.6815C13.6347 6.78323 13.888 6.17107 15.2027 6.17107L16.8769 6.1704V3.39446C16.5874 3.35756 15.5935 3.27295 14.4368 3.27295C12.0215 3.27295 10.3679 4.71903 10.3679 7.37413V9.66268H7.63623V12.7662H10.3679V20.7275H13.6347Z" fill="#101828"/>
<mask id="mask0_1575_12649" style="mask-type:alpha" maskUnits="userSpaceOnUse" x="7" y="3" width="10" height="18">
<path fill-rule="evenodd" clip-rule="evenodd" d="M13.6347 20.7275V12.7662H16.3581L16.7666 9.66268H13.6347V7.6815C13.6347 6.78323 13.888 6.17107 15.2027 6.17107L16.8769 6.1704V3.39446C16.5874 3.35756 15.5935 3.27295 14.4368 3.27295C12.0215 3.27295 10.3679 4.71903 10.3679 7.37413V9.66268H7.63623V12.7662H10.3679V20.7275H13.6347Z" fill="white"/>
</mask>
<g mask="url(#mask0_1575_12649)">
</g>
</svg>
