<svg width="25" height="25" viewBox="0 0 25 25" fill="none" xmlns="http://www.w3.org/2000/svg">
<path d="M18.6667 24.0023C16.4617 24.0003 14.2911 23.4554 12.3467 22.4157L11.7467 22.0823C7.601 19.8534 4.20225 16.4546 1.97333 12.309L1.64 11.709C0.573094 9.75354 0.00950749 7.56324 8.29008e-07 5.33564V4.44231C-0.000559171 3.73159 0.282614 3.05004 0.786667 2.54898L3.04 0.295643C3.25884 0.0751098 3.56775 -0.0311835 3.87595 0.0079898C4.18415 0.0471631 4.45664 0.227377 4.61333 0.495643L7.61333 5.64231C7.91671 6.16616 7.82911 6.82866 7.4 7.25564L4.88 9.77567C4.67072 9.9826 4.62196 10.3023 4.76 10.5623L5.22667 11.4423C6.90272 14.5469 9.4524 17.0919 12.56 18.7623L13.44 19.2423C13.7 19.3803 14.0197 19.3315 14.2267 19.1223L16.7467 16.6023C17.1736 16.1733 17.8361 16.0857 18.36 16.389L23.5067 19.389C23.7749 19.5457 23.9552 19.8182 23.9943 20.1263C24.0335 20.4346 23.9272 20.7435 23.7067 20.9623L21.4533 23.2157C20.9523 23.7197 20.2707 24.0029 19.56 24.0023H18.6667Z" fill="black"/>
</svg>
