<svg width="24" height="24" viewBox="0 0 24 24" fill="none" xmlns="http://www.w3.org/2000/svg">
<path opacity="0.4" d="M1.19981 20.5002L1.19981 3.5002C1.19981 3.1002 1.49981 2.7002 1.99981 2.7002C2.49981 2.7002 2.7998 3.0002 2.7998 3.5002L2.7998 20.5002C2.7998 20.9002 2.49981 21.3002 1.99981 21.3002C1.49981 21.3002 1.19981 20.9002 1.19981 20.5002Z" fill="#101828"/>
<path d="M5.79961 19.0004C5.79961 18.8004 5.89961 18.6004 5.99961 18.5004L19.9996 4.50039C20.2996 4.20039 20.6996 4.20039 20.9996 4.50039C21.2996 4.80039 21.2996 5.30039 20.9996 5.60039L6.99961 19.6004C6.69961 19.9004 6.19961 19.9004 5.89961 19.6004C5.79961 19.4004 5.79961 19.2004 5.79961 19.0004Z" fill="#101828"/>
<path d="M9.4998 5.0002C9.4998 4.6002 9.7998 4.2002 10.2998 4.2002L20.4998 4.2002C20.8998 4.2002 21.2998 4.5002 21.2998 5.0002L21.2998 15.3002C21.2998 15.7002 20.9998 16.1002 20.4998 16.1002C19.9998 16.1002 19.6998 15.8002 19.6998 15.3002L19.6998 5.8002L10.1998 5.8002C9.7998 5.8002 9.4998 5.4002 9.4998 5.0002Z" fill="#101828"/>
</svg>
