<svg width="405" height="416" viewBox="0 0 405 416" fill="none" xmlns="http://www.w3.org/2000/svg">
<path d="M323.031 333.965C321.038 336.835 311.84 353.195 309.294 358.422C307.47 362.166 307.282 366.483 308.856 370.289C315.793 387.064 340.435 359.083 344.147 348.265C345.8 343.911 346.6 338.876 349.011 335.046C350.137 333.256 352.941 333.696 353.379 335.728C354.225 339.104 358.741 337.386 358.354 334.362C357.72 330.321 355.036 326.727 356.334 322.44C359.38 311.396 348.547 319.492 344.075 321.911C336.935 325.609 327.83 327.056 323.031 333.965ZM302.351 62.8445C292.053 50.003 235.958 48.3942 221.032 44.5178C220.954 44.498 220.879 44.4828 220.8 44.4709C188.692 39.6945 215.053 21.5353 182.37 19.1067C182.322 19.103 182.272 19.0978 182.225 19.0911C118.334 10.1024 101.353 55.6668 55.2433 79.9367C42.9838 86.3896 53.8873 97.935 49.2791 103.946C37.7836 118.941 36.5224 124.146 46.6479 141.206C63.0062 171.822 79.041 178.739 113.853 175.326C114.062 175.306 168.909 174.72 164.608 198.115C160.125 222.503 181.797 232.143 179.952 254.986C177.118 290.093 167.362 282.924 165.18 293.637C164.161 298.645 167.728 303.244 170.632 307.46C184.512 327.608 186.404 353.257 186.052 377.591C185.279 388.236 189.741 393.799 201.36 393.29C214.683 392.773 229.199 396.038 241.847 391.049C241.922 391.02 241.996 390.988 242.068 390.953C256.43 384.055 258.529 364.65 270.233 354.002C274.427 350.186 280.345 346.513 279.983 341.006C279.64 335.793 273.464 332.067 273.718 326.879C273.724 326.77 273.738 326.657 273.757 326.549C275.474 316.981 288.342 319.208 295.709 317.356C295.848 317.321 295.984 317.274 296.116 317.217C328.791 303.137 291.982 260.773 315.003 240.951C330.766 227.379 373.347 187.358 378.688 176.641C382.219 169.559 375.156 161.942 367.49 164.442C367.399 164.472 367.307 164.508 367.22 164.548C353.542 170.77 343.141 170.148 332.333 159.374C312.143 141.722 314.555 116.504 304.159 94.9612C304.121 94.8822 304.079 94.8049 304.033 94.7296C300.172 88.418 294.318 83.3519 290.937 76.7843C287.917 71.5213 291.189 66.7333 296.958 70.7669C297.756 71.3247 302.495 63.0248 302.351 62.8445Z" fill="#C4A862"/>
</svg>
