<svg width="403" height="475" viewBox="0 0 403 475" fill="none" xmlns="http://www.w3.org/2000/svg">
<path d="M389.621 369.26C390.522 372.508 390.483 375.944 389.51 379.171C388.536 382.398 386.668 385.282 384.121 387.49L358.991 409.2L358.131 408.2L357.691 406.01L381.991 385.01C384.07 383.204 385.595 380.846 386.388 378.208C387.181 375.571 387.21 372.763 386.471 370.11L344.211 219.11C343.518 216.656 342.194 214.427 340.371 212.644C338.548 210.861 336.289 209.588 333.821 208.95L316.411 204.52L315.721 201.12V200.99L334.591 205.79C337.618 206.564 340.388 208.121 342.622 210.304C344.857 212.488 346.477 215.221 347.321 218.23L389.621 369.26Z" fill="#0C0C0C"/>
<path d="M358.15 408.2L359.01 409.2L291.26 467.73C286.737 471.647 280.954 473.805 274.97 473.81H127.22C121.246 473.804 115.472 471.654 110.95 467.75L43.6504 409.61L44.1904 408.97L47.3904 409.63L47.5804 408.69L113.09 465.28C117.019 468.667 122.033 470.533 127.22 470.54H274.97C280.178 470.542 285.212 468.667 289.15 465.26L354.89 408.46L354.98 408.85L358.15 408.2Z" fill="#0C0C0C"/>
<path d="M357.691 406.01L358.131 408.2L354.931 408.85L354.841 408.46L357.691 406.01Z" fill="#0C0C0C"/>
<path d="M352.72 381.8L357.69 406.01L354.84 408.46L349.86 384.11L350.34 384.47L352.33 381.88L352.72 381.8Z" fill="#0C0C0C"/>
<path d="M316.41 204.52L352.72 381.8L352.33 381.88L348.85 379.21L312.9 203.62L316.41 204.52Z" fill="#0C0C0C"/>
<path d="M352.331 381.88L350.341 384.47L349.861 384.11L348.851 379.21L352.331 381.88Z" fill="#0C0C0C"/>
<path d="M348.85 379.21L349.86 384.11L232.04 293.17L235.22 291.5L348.85 379.21Z" fill="#0C0C0C"/>
<path d="M312.9 203.62L348.85 379.21L235.22 291.5L232.38 289.31L221.44 280.87L230.98 276.15L239.27 272.03L239.75 271.79L242.75 266L258.35 235.96H258.5L258.52 235.64L279.57 195.13L312.9 203.62Z" fill="#AED8EE"/>
<path d="M315.721 201.12L316.411 204.52L312.901 203.62L312.521 201.78L315.721 201.12Z" fill="black"/>
<path d="M281.12 192.15L315.75 200.99L315.72 201.12L312.52 201.78L312.9 203.62L279.57 195.13L281.12 192.15Z" fill="#0C0C0C"/>
<path d="M281.12 192.15L279.57 195.13L276.32 194.3L277.86 191.32L281.12 192.15Z" fill="#0C0C0C"/>
<path d="M279.571 195.13L258.521 235.64L258.961 227.7L276.321 194.3L279.571 195.13Z" fill="#0C0C0C"/>
<path d="M277.861 191.32L276.321 194.3L263.271 190.98L264.851 188.01L277.861 191.32Z" fill="#0C0C0C"/>
<path d="M276.32 194.3L258.96 227.7L260.74 195.75L263.27 190.98L276.32 194.3Z" fill="#F5D43C"/>
<path d="M264.851 188.01L263.271 190.98L260.021 190.15L261.601 187.17L264.851 188.01Z" fill="#0C0C0C"/>
<path d="M263.27 190.98L260.74 195.75L260.76 195.39L257.49 195.21L257.36 195.14L260.02 190.15L263.27 190.98Z" fill="#0C0C0C"/>
<path d="M261.6 187.17L260.02 190.15L253.52 188.48L252.96 186.9L255.85 185.7L261.6 187.17Z" fill="#0C0C0C"/>
<path d="M260.76 195.39L260.74 195.75L257.08 202.62L257.49 195.21L260.76 195.39Z" fill="#0C0C0C"/>
<path d="M260.741 195.75L258.961 227.701L255.301 234.76L257.081 202.62L260.741 195.75Z" fill="#0C0C0C"/>
<path d="M260.021 190.15L257.361 195.15L240.961 225.99H240.861V226.22L226.861 252.6L221.391 254.87L190.761 267.65L185.371 269.89L171.651 244.89L171.701 244.37H171.321L159.071 222.02L159.121 221.68H158.861L147.151 200.4L141.601 190.28L149.751 188.2L151.581 187.73L153.151 188.4L159.241 190.98L162.241 192.25L195.451 206.25C198.851 207.657 202.67 207.657 206.071 206.25L240.071 192.14L243.071 190.88L249.831 188.07L250.711 187.71L253.411 188.4L260.021 190.15ZM226.501 228.47C226.503 226.589 225.946 224.749 224.903 223.184C223.859 221.619 222.374 220.399 220.637 219.677C218.899 218.956 216.987 218.766 215.141 219.132C213.296 219.498 211.601 220.403 210.27 221.732C208.939 223.062 208.032 224.756 207.664 226.601C207.296 228.447 207.484 230.359 208.204 232.097C208.923 233.836 210.142 235.322 211.706 236.367C213.27 237.412 215.109 237.97 216.991 237.97C219.511 237.97 221.928 236.97 223.712 235.189C225.495 233.407 226.498 230.991 226.501 228.47ZM205.501 250.39C205.501 248.509 204.943 246.67 203.897 245.106C202.852 243.542 201.366 242.323 199.628 241.603C197.889 240.884 195.977 240.696 194.132 241.064C192.287 241.432 190.592 242.338 189.262 243.669C187.933 245 187.028 246.696 186.662 248.541C186.296 250.387 186.486 252.299 187.207 254.037C187.929 255.774 189.149 257.259 190.714 258.303C192.28 259.346 194.119 259.902 196.001 259.9C197.252 259.903 198.491 259.659 199.648 259.182C200.804 258.706 201.856 258.006 202.742 257.123C203.628 256.239 204.331 255.19 204.811 254.035C205.291 252.88 205.539 251.641 205.541 250.39H205.501ZM192.451 222C192.449 220.122 191.89 218.287 190.845 216.726C189.801 215.166 188.317 213.949 186.581 213.232C184.846 212.514 182.937 212.327 181.095 212.693C179.253 213.06 177.561 213.965 176.233 215.293C174.905 216.621 174 218.313 173.634 220.155C173.267 221.997 173.454 223.906 174.172 225.641C174.89 227.377 176.106 228.861 177.666 229.905C179.227 230.95 181.063 231.508 182.941 231.51C184.192 231.514 185.433 231.271 186.591 230.795C187.748 230.319 188.801 229.62 189.688 228.736C190.575 227.853 191.279 226.803 191.76 225.647C192.241 224.492 192.489 223.252 192.491 222H192.451Z" fill="#F5D43C"/>
<path d="M258.96 227.7L258.52 235.64L258.35 235.96L255.25 235.79L255.3 234.76L258.96 227.7Z" fill="#0C0C0C"/>
<path d="M258.521 235.64L258.501 235.96H258.351L258.521 235.64Z" fill="black"/>
<path d="M258.35 235.96L242.75 266L242.67 265.96L242.93 258.56L255.3 234.76L255.25 235.79L258.35 235.96Z" fill="#0C0C0C"/>
<path d="M257.49 195.21L257.08 202.62L244.08 227.08L244.11 226.1L240.96 225.98L257.36 195.14L257.49 195.21Z" fill="#0C0C0C"/>
<path d="M257.081 202.62L255.301 234.76L242.931 258.56L244.081 227.08L257.081 202.62Z" fill="#52A6DC"/>
<path d="M255.85 185.701L252.96 186.901L252.24 184.791L255.85 185.701Z" fill="#0C0C0C"/>
<path d="M252.96 186.9L253.52 188.48L250.82 187.79L252.96 186.9Z" fill="#0C0C0C"/>
<path d="M237.87 70.9201L253.11 113.76L233.98 131.59L233.82 131.09L230.71 132.16L231.37 134.03L225.5 139.49L225.21 138.61L222.11 139.67L221.37 138.87L249.32 112.83L234.28 70.5701L245.74 51.1001H249.53L237.87 70.9201Z" fill="#0C0C0C"/>
<path d="M252.241 184.79L252.961 186.9L250.821 187.79L249.731 187.52L248.881 185.06L250.561 184.36L252.241 184.79Z" fill="#0C0C0C"/>
<path d="M252.85 1.12012V51.1001H249.53L251.46 47.8401H249.58V4.38012H236.32V2.75011H233.05V4.38012H219.25V2.75011H215.98V4.38012H202.19V2.75011H198.93V4.38012H185.12V2.75011H181.86V4.38012H168.05V2.75011H164.79V4.38012H152.06V47.8401H150.18L152.11 51.1001H148.79V1.12012H252.85Z" fill="#0C0C0C"/>
<path d="M251.901 183.81L252.241 184.79L250.561 184.36L251.901 183.81Z" fill="#0C0C0C"/>
<path d="M233.98 131.59L251.9 183.81L250.56 184.36L248.45 183.82L231.37 134.03L233.98 131.59Z" fill="#0C0C0C"/>
<path d="M251.461 47.8398L249.531 51.0998H245.741H155.901H152.111L150.181 47.8398H152.061H164.791V49.4698H168.051V47.8398H181.861V49.4698H185.121V47.8398H198.931V49.4698H202.191V47.8398H215.981V49.4698H219.251V47.8398H233.051V49.4698H236.321V47.8398H249.581H251.461Z" fill="#0C0C0C"/>
<path d="M250.82 187.79L249.94 188.15L249.73 187.52L250.82 187.79Z" fill="#0C0C0C"/>
<path d="M250.56 184.36L248.88 185.06L248.45 183.82L250.56 184.36Z" fill="#0C0C0C"/>
<path d="M249.73 187.52L249.94 188.15L243.18 190.96L242.12 187.87L245.53 186.45L249.73 187.52Z" fill="#0C0C0C"/>
<path d="M248.88 185.06L249.73 187.52L245.53 186.45L248.88 185.06Z" fill="#0C0C0C"/>
<path d="M249.58 4.37988H236.32V47.8299H249.58V4.37988Z" fill="#648E78"/>
<path d="M234.281 70.5701L249.321 112.83L221.371 138.87L201.901 157.02L193.371 149.47L180.841 138.27L152.341 112.82L167.371 70.5701L155.901 51.1001H245.741L234.281 70.5701Z" fill="#F1A64B"/>
<path d="M248.45 183.82L248.88 185.06L245.53 186.45L242.12 187.87L225.5 139.49L231.37 134.03L248.45 183.82Z" fill="#EF9634"/>
<path d="M244.11 226.1L244.08 227.08L240.57 233.68L240.84 226.21L240.96 225.98L244.11 226.1Z" fill="#0C0C0C"/>
<path d="M244.08 227.08L242.93 258.56L239.42 265.32L240.57 233.68L244.08 227.08Z" fill="#0C0C0C"/>
<path d="M242.12 187.87L243.18 190.96L240.16 192.22L239.08 189.12L242.12 187.87Z" fill="#0C0C0C"/>
<path d="M242.93 258.56L242.67 265.96L239.4 265.84L239.42 265.32L242.93 258.56Z" fill="#0C0C0C"/>
<path d="M242.751 266L239.751 271.79L239.271 272.03L230.981 276.15L230.781 275.74L229.601 273.18L237.351 269.34L239.421 265.32L239.401 265.84L242.671 265.96L242.751 266Z" fill="#0C0C0C"/>
<path d="M225.501 139.49L242.121 187.87L239.081 189.12L222.891 141.93L225.501 139.49Z" fill="#0C0C0C"/>
<path d="M240.961 225.98L240.841 226.21L240.861 225.98H240.961Z" fill="black"/>
<path d="M240.841 226.21L240.571 233.68L229.151 255.16L222.681 257.85L221.581 255.45L221.341 254.87L226.811 252.59L240.841 226.21Z" fill="#0C0C0C"/>
<path d="M240.571 233.68L239.421 265.32L237.351 269.34L229.601 273.18L222.681 257.85L229.151 255.16L240.571 233.68Z" fill="#8058A4"/>
<path d="M239.08 189.12L240.16 192.22L206.16 206.33C202.76 207.736 198.94 207.736 195.54 206.33L162.33 192.33L163.4 189.23L196.82 203.36C198.104 203.892 199.48 204.165 200.87 204.165C202.26 204.165 203.636 203.892 204.92 203.36L239.08 189.12Z" fill="#0C0C0C"/>
<path d="M222.89 141.92L239.08 189.12L204.89 203.31C203.606 203.842 202.23 204.116 200.84 204.116C199.45 204.116 198.074 203.842 196.79 203.31L163.37 189.18L179.68 141.66L191.2 151.94L201.95 161.47L222.89 141.92Z" fill="#F1A64B"/>
<path d="M236.321 47.8398H233.051V49.4698H236.321V47.8398Z" fill="#0C0C0C"/>
<path d="M236.321 4.37988H233.051V47.8299H236.321V4.37988Z" fill="#0C0C0C"/>
<path d="M236.321 2.75H233.051V4.38H236.321V2.75Z" fill="#0C0C0C"/>
<path d="M235.22 291.5L232.04 293.17L229.2 290.98L232.38 289.31L235.22 291.5Z" fill="#0C0C0C"/>
<path d="M233.82 131.09L233.98 131.59L231.37 134.03L230.71 132.16L233.82 131.09Z" fill="#0C0C0C"/>
<path d="M233.05 4.37988H219.25V47.8299H233.05V4.37988Z" fill="#F5D43C"/>
<path d="M232.38 289.31L229.2 290.98L218.19 282.49L221.44 280.87L232.38 289.31Z" fill="#0C0C0C"/>
<path d="M232.04 293.17L168.98 326.17L152.71 302.22L155.28 300.18L170.06 321.92L229.2 290.98L232.04 293.17Z" fill="#4A6656"/>
<path d="M230.78 275.74L230.98 276.15L221.44 280.87L219.15 279.11L217.16 281.69L218.19 282.49L217.42 282.86L217.34 282.68L216.08 279.87L226.68 274.63L227.81 277.1L230.78 275.74Z" fill="#0C0C0C"/>
<path d="M229.601 273.18L230.781 275.74L227.811 277.1L226.681 274.63L229.601 273.18Z" fill="#0C0C0C"/>
<path d="M222.68 257.85L229.6 273.18L226.68 274.63L219.66 259.11L222.68 257.85Z" fill="#0C0C0C"/>
<path d="M229.2 290.98L170.06 321.92L155.28 300.18L167.09 290.75L173.85 304.46L217.42 282.86L218.19 282.49L229.2 290.98Z" fill="#A59E7F"/>
<path d="M219.66 259.11L226.68 274.63L216.08 279.87L208.73 263.67L219.66 259.11Z" fill="#73C48D"/>
<path d="M225.21 138.61L225.5 139.49L222.89 141.93L222.11 139.67L225.21 138.61Z" fill="#0C0C0C"/>
<path d="M216.99 218.96C218.872 218.958 220.711 219.515 222.276 220.558C223.842 221.602 225.062 223.087 225.783 224.824C226.505 226.562 226.695 228.474 226.329 230.32C225.963 232.165 225.058 233.861 223.728 235.192C222.399 236.523 220.704 237.429 218.859 237.797C217.014 238.165 215.102 237.977 213.363 237.258C211.625 236.538 210.139 235.319 209.094 233.755C208.048 232.191 207.49 230.352 207.49 228.47C207.49 225.95 208.491 223.533 210.272 221.749C212.053 219.966 214.47 218.963 216.99 218.96ZM216.99 234.71C218.224 234.71 219.431 234.344 220.457 233.659C221.483 232.973 222.283 231.999 222.755 230.858C223.228 229.718 223.351 228.464 223.11 227.253C222.87 226.043 222.275 224.931 221.403 224.058C220.53 223.185 219.418 222.591 218.208 222.35C216.997 222.11 215.743 222.233 214.602 222.705C213.462 223.178 212.488 223.978 211.802 225.004C211.116 226.03 210.75 227.236 210.75 228.47C210.756 230.124 211.415 231.708 212.584 232.877C213.753 234.046 215.337 234.705 216.99 234.71Z" fill="#D3B433"/>
<path d="M223.23 228.47C223.23 229.704 222.864 230.911 222.178 231.937C221.493 232.963 220.518 233.763 219.378 234.235C218.238 234.707 216.983 234.831 215.773 234.59C214.562 234.349 213.45 233.755 212.578 232.882C211.705 232.01 211.111 230.898 210.87 229.687C210.629 228.477 210.753 227.222 211.225 226.082C211.697 224.942 212.497 223.967 213.523 223.282C214.549 222.596 215.756 222.23 216.99 222.23C218.643 222.235 220.227 222.894 221.397 224.063C222.566 225.233 223.225 226.817 223.23 228.47V228.47ZM221.62 228.47C221.624 227.551 221.355 226.652 220.847 225.886C220.339 225.12 219.615 224.522 218.767 224.168C217.919 223.814 216.985 223.72 216.083 223.897C215.182 224.075 214.353 224.516 213.703 225.165C213.052 225.815 212.609 226.642 212.429 227.544C212.25 228.445 212.342 229.379 212.694 230.228C213.046 231.077 213.643 231.802 214.407 232.311C215.172 232.821 216.071 233.092 216.99 233.09C218.215 233.085 219.388 232.597 220.255 231.732C221.121 230.867 221.612 229.695 221.62 228.47V228.47Z" fill="#8058A4"/>
<path d="M222.111 139.67L222.891 141.93L201.951 161.44L191.201 151.9L179.681 141.63L180.831 138.28L180.841 138.27L193.371 149.47L201.901 157.02L221.371 138.87L222.111 139.67Z" fill="#0C0C0C"/>
<path d="M221.58 255.45L222.68 257.85L219.66 259.11L218.61 256.81L221.58 255.45Z" fill="#0C0C0C"/>
<path d="M221.34 254.87L221.58 255.45L218.61 256.81L219.66 259.11L208.73 263.67L208.16 262.38L205.18 263.73L205.72 264.93L192.02 270.63L191.14 268.67L190.71 267.64L221.34 254.87Z" fill="#0C0C0C"/>
<path d="M221.44 280.87L218.19 282.49L217.16 281.69L219.15 279.11L221.44 280.87Z" fill="#0C0C0C"/>
<path d="M216.991 223.81C217.905 223.812 218.799 224.085 219.559 224.595C220.319 225.104 220.911 225.827 221.26 226.673C221.609 227.518 221.7 228.449 221.521 229.346C221.342 230.243 220.901 231.067 220.254 231.714C219.608 232.361 218.783 232.802 217.886 232.981C216.989 233.16 216.059 233.069 215.213 232.72C214.368 232.37 213.645 231.778 213.135 231.019C212.626 230.259 212.353 229.365 212.351 228.45C212.353 227.22 212.843 226.042 213.713 225.172C214.582 224.302 215.761 223.813 216.991 223.81V223.81ZM218.351 228.45C218.355 228.178 218.277 227.911 218.129 227.683C217.98 227.454 217.767 227.276 217.517 227.169C217.266 227.063 216.989 227.033 216.722 227.085C216.455 227.136 216.209 227.266 216.016 227.458C215.822 227.65 215.691 227.895 215.637 228.162C215.584 228.428 215.611 228.705 215.716 228.957C215.821 229.208 215.998 229.422 216.225 229.573C216.452 229.723 216.718 229.802 216.991 229.8C217.347 229.803 217.69 229.664 217.945 229.415C218.199 229.166 218.345 228.826 218.351 228.47V228.45Z" fill="#D3B433"/>
<path d="M219.25 47.8398H215.98V49.4698H219.25V47.8398Z" fill="#0C0C0C"/>
<path d="M219.25 4.37988H215.98V47.8299H219.25V4.37988Z" fill="#0C0C0C"/>
<path d="M219.25 2.75H215.98V4.38H219.25V2.75Z" fill="#0C0C0C"/>
<path d="M217.34 282.68L217.42 282.86L173.85 304.46L167.09 290.75L168.67 289.5L166.63 286.93L165.6 287.75L164.07 284.64L166.89 284.97L167.07 283.37L175.34 300.08L196.92 289.38L197.36 290.31L200.33 288.97L199.86 287.93L213.15 281.33L214.36 284.02L217.34 282.68Z" fill="#0C0C0C"/>
<path d="M216.08 279.87L217.34 282.68L214.36 284.02L213.15 281.33L216.08 279.87Z" fill="#0C0C0C"/>
<path d="M208.731 263.67L216.081 279.87L213.151 281.33L205.721 264.93L208.731 263.67Z" fill="#0C0C0C"/>
<path d="M215.98 4.37988H202.19V47.8299H215.98V4.37988Z" fill="#648E78"/>
<path d="M205.721 264.93L213.151 281.33L199.861 287.93L192.021 270.63L205.721 264.93Z" fill="#EE4394"/>
<path d="M208.161 262.38L208.731 263.67L205.721 264.93L205.181 263.73L208.161 262.38Z" fill="#0C0C0C"/>
<path d="M196.04 240.88C197.921 240.88 199.76 241.438 201.324 242.483C202.888 243.528 204.107 245.013 204.826 246.751C205.546 248.489 205.734 250.401 205.368 252.246C205.001 254.09 204.095 255.785 202.765 257.115C201.435 258.445 199.74 259.351 197.896 259.718C196.051 260.085 194.139 259.896 192.401 259.176C190.663 258.457 189.178 257.238 188.133 255.674C187.088 254.11 186.53 252.271 186.53 250.39C186.533 247.869 187.536 245.452 189.319 243.669C191.102 241.886 193.519 240.883 196.04 240.88ZM196.04 256.63C197.274 256.63 198.481 256.264 199.507 255.579C200.533 254.893 201.333 253.919 201.805 252.778C202.278 251.638 202.401 250.383 202.16 249.173C201.92 247.963 201.325 246.851 200.453 245.978C199.58 245.105 198.468 244.511 197.258 244.27C196.047 244.029 194.793 244.153 193.652 244.625C192.512 245.098 191.538 245.897 190.852 246.924C190.166 247.95 189.8 249.156 189.8 250.39C189.803 252.044 190.461 253.63 191.631 254.8C192.8 255.969 194.386 256.628 196.04 256.63V256.63Z" fill="#D3B433"/>
<path d="M202.281 250.39C202.281 251.624 201.915 252.83 201.229 253.857C200.543 254.883 199.569 255.683 198.429 256.155C197.289 256.627 196.034 256.751 194.823 256.51C193.613 256.269 192.501 255.675 191.628 254.802C190.756 253.93 190.161 252.818 189.921 251.607C189.68 250.397 189.803 249.142 190.276 248.002C190.748 246.862 191.548 245.887 192.574 245.202C193.6 244.516 194.807 244.15 196.041 244.15C197.695 244.153 199.281 244.811 200.45 245.98C201.62 247.15 202.278 248.736 202.281 250.39ZM200.661 250.39C200.659 249.474 200.385 248.58 199.875 247.819C199.365 247.059 198.64 246.467 197.793 246.119C196.947 245.77 196.015 245.68 195.118 245.861C194.22 246.041 193.396 246.484 192.75 247.133C192.104 247.782 191.665 248.608 191.488 249.506C191.311 250.405 191.405 251.336 191.757 252.181C192.109 253.026 192.704 253.748 193.467 254.255C194.229 254.762 195.125 255.032 196.041 255.03C196.649 255.029 197.251 254.908 197.812 254.674C198.373 254.44 198.883 254.098 199.312 253.667C199.741 253.236 200.081 252.725 200.312 252.163C200.544 251.6 200.662 250.998 200.661 250.39V250.39Z" fill="#EE4394"/>
<path d="M202.201 47.8398H198.931V49.4698H202.201V47.8398Z" fill="#0C0C0C"/>
<path d="M202.201 4.37988H198.931V47.8299H202.201V4.37988Z" fill="#0C0C0C"/>
<path d="M202.201 2.75H198.931V4.38H202.201V2.75Z" fill="#0C0C0C"/>
<path d="M199.86 287.93L200.33 288.97L197.36 290.31L196.92 289.38L199.86 287.93Z" fill="#0C0C0C"/>
<path d="M192.021 270.63L199.861 287.93L196.921 289.38L189.011 271.89L192.021 270.63Z" fill="#0C0C0C"/>
<path d="M196.04 245.81C196.956 245.812 197.851 246.086 198.611 246.596C199.371 247.106 199.963 247.831 200.312 248.677C200.66 249.524 200.75 250.455 200.569 251.353C200.389 252.251 199.946 253.075 199.297 253.721C198.648 254.367 197.822 254.806 196.924 254.983C196.025 255.16 195.095 255.066 194.249 254.714C193.404 254.362 192.682 253.767 192.175 253.004C191.668 252.242 191.398 251.346 191.4 250.43C191.402 249.822 191.523 249.22 191.757 248.659C191.991 248.098 192.333 247.588 192.764 247.159C193.194 246.73 193.706 246.39 194.268 246.159C194.83 245.927 195.432 245.809 196.04 245.81V245.81ZM197.39 250.43C197.392 250.252 197.358 250.075 197.291 249.91C197.223 249.745 197.124 249.595 196.999 249.469C196.873 249.343 196.724 249.242 196.559 249.174C196.395 249.105 196.219 249.07 196.04 249.07C195.768 249.066 195.501 249.143 195.273 249.292C195.045 249.44 194.866 249.654 194.76 249.904C194.653 250.155 194.624 250.431 194.675 250.699C194.726 250.966 194.856 251.212 195.048 251.405C195.24 251.598 195.485 251.73 195.752 251.783C196.019 251.837 196.296 251.809 196.547 251.705C196.798 251.6 197.013 251.423 197.163 251.196C197.313 250.969 197.392 250.702 197.39 250.43V250.43Z" fill="#D3B433"/>
<path d="M198.92 4.37988H185.12V47.8299H198.92V4.37988Z" fill="#F5D43C"/>
<path d="M189.01 271.89L196.92 289.38L175.34 300.08L167.07 283.37L170.93 250.45L183.93 274.03L189.01 271.89ZM184.47 284.09C184.468 283.175 184.195 282.281 183.686 281.521C183.176 280.761 182.453 280.169 181.608 279.82C180.762 279.471 179.832 279.38 178.935 279.559C178.037 279.738 177.213 280.179 176.566 280.826C175.919 281.473 175.479 282.297 175.3 283.194C175.121 284.091 175.212 285.021 175.561 285.867C175.91 286.713 176.502 287.436 177.262 287.945C178.022 288.455 178.915 288.728 179.83 288.73C180.44 288.731 181.044 288.612 181.608 288.379C182.171 288.146 182.683 287.805 183.114 287.374C183.545 286.942 183.887 286.43 184.12 285.867C184.352 285.303 184.472 284.699 184.47 284.09V284.09Z" fill="#73C48D"/>
<path d="M191.14 268.67L192.02 270.63L189.01 271.89L188.16 270.02L191.14 268.67Z" fill="#0C0C0C"/>
<path d="M190.711 267.64L191.141 268.67L188.161 270.02L189.011 271.89L183.881 274.02L170.931 250.45L171.601 244.85L185.321 269.88L190.711 267.64Z" fill="#0C0C0C"/>
<path d="M182.98 212.49C184.862 212.486 186.703 213.04 188.269 214.083C189.836 215.125 191.058 216.609 191.781 218.347C192.503 220.084 192.695 221.997 192.33 223.843C191.965 225.689 191.061 227.385 189.732 228.717C188.403 230.049 186.708 230.957 184.863 231.326C183.018 231.694 181.104 231.507 179.366 230.788C177.627 230.069 176.14 228.85 175.094 227.285C174.049 225.721 173.49 223.882 173.49 222C173.493 219.482 174.493 217.067 176.271 215.285C178.05 213.503 180.462 212.498 182.98 212.49V212.49ZM182.98 228.24C184.215 228.244 185.424 227.881 186.452 227.198C187.481 226.515 188.284 225.541 188.759 224.402C189.235 223.262 189.361 222.006 189.123 220.795C188.884 219.583 188.292 218.469 187.42 217.595C186.548 216.72 185.436 216.124 184.225 215.881C183.014 215.639 181.758 215.761 180.617 216.233C179.476 216.705 178.5 217.504 177.813 218.531C177.127 219.558 176.76 220.765 176.76 222C176.763 223.65 177.418 225.233 178.584 226.402C179.749 227.571 181.33 228.232 182.98 228.24V228.24Z" fill="#D3B433"/>
<path d="M189.221 222C189.219 223.232 188.852 224.435 188.167 225.458C187.481 226.481 186.508 227.278 185.37 227.748C184.232 228.218 182.98 228.341 181.773 228.1C180.565 227.859 179.456 227.266 178.585 226.396C177.715 225.525 177.122 224.416 176.881 223.208C176.64 222.001 176.763 220.749 177.233 219.611C177.703 218.473 178.5 217.5 179.523 216.814C180.546 216.129 181.749 215.762 182.981 215.76C184.635 215.763 186.22 216.421 187.39 217.591C188.56 218.76 189.218 220.346 189.221 222ZM183.151 227.13C184.066 227.128 184.96 226.855 185.72 226.345C186.48 225.835 187.072 225.111 187.421 224.265C187.77 223.419 187.86 222.488 187.681 221.591C187.501 220.693 187.059 219.869 186.411 219.223C185.763 218.576 184.938 218.136 184.04 217.958C183.142 217.781 182.212 217.873 181.367 218.224C180.521 218.574 179.799 219.168 179.29 219.929C178.782 220.69 178.511 221.585 178.511 222.5C178.511 223.109 178.631 223.712 178.864 224.274C179.097 224.837 179.439 225.348 179.87 225.778C180.301 226.208 180.813 226.549 181.376 226.781C181.939 227.013 182.542 227.132 183.151 227.13V227.13Z" fill="#52A6DC"/>
<path d="M187.75 222.5C187.75 223.416 187.478 224.311 186.969 225.073C186.46 225.835 185.736 226.428 184.89 226.778C184.043 227.128 183.112 227.219 182.213 227.04C181.315 226.86 180.49 226.419 179.843 225.77C179.196 225.121 178.756 224.296 178.578 223.397C178.4 222.498 178.494 221.567 178.846 220.721C179.198 219.875 179.793 219.153 180.555 218.645C181.318 218.138 182.214 217.868 183.13 217.87C184.356 217.872 185.532 218.361 186.398 219.229C187.264 220.097 187.75 221.273 187.75 222.5ZM184.49 222.5C184.492 222.228 184.413 221.962 184.264 221.735C184.114 221.508 183.9 221.331 183.649 221.226C183.398 221.121 183.122 221.093 182.855 221.146C182.589 221.198 182.344 221.329 182.152 221.521C181.959 221.713 181.829 221.958 181.776 222.225C181.724 222.492 181.752 222.768 181.856 223.019C181.961 223.269 182.139 223.483 182.365 223.633C182.592 223.783 182.858 223.862 183.13 223.86C183.491 223.86 183.837 223.716 184.092 223.461C184.347 223.206 184.49 222.86 184.49 222.5V222.5Z" fill="#D3B433"/>
<path d="M185.13 47.8398H181.86V49.4698H185.13V47.8398Z" fill="#0C0C0C"/>
<path d="M185.13 4.37988H181.86V47.8299H185.13V4.37988Z" fill="#0C0C0C"/>
<path d="M185.13 2.75H181.86V4.38H185.13V2.75Z" fill="#0C0C0C"/>
<path d="M179.83 279.47C180.747 279.468 181.643 279.738 182.406 280.246C183.169 280.754 183.764 281.477 184.116 282.324C184.467 283.17 184.56 284.102 184.381 285.001C184.203 285.9 183.762 286.726 183.114 287.374C182.466 288.022 181.64 288.463 180.741 288.642C179.842 288.82 178.91 288.728 178.064 288.376C177.217 288.024 176.494 287.429 175.986 286.666C175.478 285.903 175.208 285.007 175.21 284.09C175.213 282.866 175.7 281.692 176.566 280.826C177.432 279.96 178.605 279.473 179.83 279.47V279.47ZM181.2 284.09C181.197 283.729 181.052 283.383 180.795 283.128C180.539 282.873 180.192 282.73 179.83 282.73C179.488 282.76 179.17 282.916 178.938 283.169C178.706 283.421 178.577 283.752 178.577 284.095C178.577 284.438 178.706 284.769 178.938 285.022C179.17 285.274 179.488 285.431 179.83 285.46C180.193 285.458 180.539 285.312 180.796 285.056C181.052 284.8 181.197 284.453 181.2 284.09V284.09Z" fill="#467855"/>
<path d="M181.851 4.37988H168.051V47.8299H181.851V4.37988Z" fill="#52A6DC"/>
<path d="M180.841 138.27L180.831 138.28L177.741 137.22L177.041 139.26L171.701 134.49L172.501 132.16L169.391 131.09L169.051 132.12L148.521 113.78L163.771 70.9201L152.111 51.1001H155.901L167.371 70.5701L152.341 112.82L180.841 138.27Z" fill="#0C0C0C"/>
<path d="M180.83 138.28L179.68 141.63L177.04 139.26L177.74 137.22L180.83 138.28Z" fill="#0C0C0C"/>
<path d="M179.831 282.73C180.103 282.726 180.37 282.803 180.598 282.952C180.826 283.1 181.005 283.314 181.111 283.564C181.218 283.815 181.247 284.091 181.196 284.359C181.144 284.626 181.015 284.872 180.823 285.065C180.631 285.258 180.386 285.39 180.119 285.443C179.852 285.497 179.575 285.469 179.324 285.365C179.073 285.26 178.858 285.083 178.708 284.856C178.558 284.629 178.479 284.362 178.481 284.09C178.479 283.912 178.513 283.735 178.58 283.57C178.648 283.405 178.747 283.255 178.872 283.129C178.998 283.003 179.147 282.902 179.312 282.834C179.476 282.765 179.652 282.73 179.831 282.73V282.73Z" fill="#EE4394"/>
<path d="M179.681 141.63L163.371 189.15L160.341 187.87L177.041 139.26L179.681 141.63Z" fill="#0C0C0C"/>
<path d="M177.04 139.26L160.34 187.87L156.85 186.4L154.25 185.29L154.85 183.53L171.7 134.49L177.04 139.26Z" fill="#EF9634"/>
<path d="M172.501 132.16L171.701 134.49L169.051 132.12L169.391 131.09L172.501 132.16Z" fill="#0C0C0C"/>
<path d="M171.7 134.49L154.85 183.53L151.87 184.3L151.23 184.02L169.05 132.12L171.7 134.49Z" fill="#0C0C0C"/>
<path d="M171.651 244.33L171.601 244.85L171.271 244.28L171.651 244.33Z" fill="black"/>
<path d="M171.27 244.28L171.6 244.85L170.93 250.45L168.23 245.5L168.41 243.94L171.27 244.28Z" fill="#0C0C0C"/>
<path d="M159.021 221.93L171.271 244.28L168.411 243.94L168.231 245.5L158.301 227.44L159.021 221.93Z" fill="#0C0C0C"/>
<path d="M168.231 245.5L170.931 250.451L167.071 283.37L164.431 278L168.231 245.5Z" fill="#0C0C0C"/>
<path d="M166.631 286.93L168.671 289.5L167.091 290.75L165.601 287.75L166.631 286.93Z" fill="#0C0C0C"/>
<path d="M158.3 227.44L168.23 245.5L164.43 278L154.4 257.71L158.3 227.44Z" fill="#8058A4"/>
<path d="M168.06 47.8398H164.79V49.4698H168.06V47.8398Z" fill="#0C0C0C"/>
<path d="M168.06 4.37988H164.79V47.8299H168.06V4.37988Z" fill="#0C0C0C"/>
<path d="M168.06 2.75H164.79V4.38H168.06V2.75Z" fill="#0C0C0C"/>
<path d="M165.601 287.75L167.091 290.75L155.281 300.18L153.431 297.47L165.601 287.75Z" fill="#0C0C0C"/>
<path d="M164.431 278L167.071 283.37L166.891 284.97L164.071 284.64L163.721 283.96L164.431 278Z" fill="#0C0C0C"/>
<path d="M164.071 284.64L165.601 287.75L153.431 297.47L150.871 299.51L54.1309 376.67L89.6009 203.54L120.141 195.77L138.671 233.24L150.951 258.1L163.721 283.96L163.641 284.59L164.071 284.64Z" fill="#AED8EE"/>
<path d="M164.781 4.37988H152.061V47.8299H164.781V4.37988Z" fill="#F5D43C"/>
<path d="M154.4 257.71L164.43 278L163.72 283.96L150.95 258.1L151.07 258.05L154.3 258.48L154.4 257.71Z" fill="#0C0C0C"/>
<path d="M163.721 283.96L164.071 284.64L163.641 284.59L163.721 283.96Z" fill="#0C0C0C"/>
<path d="M163.37 189.15L162.3 192.25L159.28 190.98L160.34 187.87L163.37 189.15Z" fill="#0C0C0C"/>
<path d="M160.34 187.87L159.28 190.98L153.19 188.4L153.58 187.24L156.85 186.4L160.34 187.87Z" fill="#0C0C0C"/>
<path d="M159.071 221.59L159.021 221.93L158.811 221.56L159.071 221.59Z" fill="black"/>
<path d="M158.811 221.56L159.021 221.93L158.301 227.44L155.641 222.57L155.821 221.17L158.811 221.56Z" fill="#0C0C0C"/>
<path d="M147.19 200.4L158.81 221.56L155.82 221.17L155.64 222.57L146.21 205.4L146.92 200.57L147.19 200.4Z" fill="#0C0C0C"/>
<path d="M155.64 222.57L158.3 227.44L154.4 257.71L151.78 252.43L155.64 222.57Z" fill="#0C0C0C"/>
<path d="M156.85 186.401L153.58 187.241L154.25 185.291L156.85 186.401Z" fill="#0C0C0C"/>
<path d="M146.21 205.4L155.64 222.57L151.78 252.43L142.23 233.07L146.21 205.4Z" fill="#52A6DC"/>
<path d="M153.43 297.47L155.28 300.18L152.71 302.22L150.87 299.51L153.43 297.47Z" fill="#0C0C0C"/>
<path d="M154.85 183.53L154.25 185.29L151.87 184.3L154.85 183.53Z" fill="#0C0C0C"/>
<path d="M151.78 252.43L154.4 257.71L154.3 258.48L151.07 258.05L151.78 252.43Z" fill="#0C0C0C"/>
<path d="M154.25 185.29L153.58 187.24L151.62 187.73L150.17 187.12L151.07 184.49L151.87 184.3L154.25 185.29Z" fill="#0C0C0C"/>
<path d="M153.58 187.24L153.19 188.4L151.62 187.73L153.58 187.24Z" fill="#0C0C0C"/>
<path d="M150.871 299.51L152.711 302.22L53.1006 381.67L54.1306 376.67L150.871 299.51Z" fill="#0C0C0C"/>
<path d="M151.87 184.3L151.07 184.49L151.23 184.02L151.87 184.3Z" fill="#0C0C0C"/>
<path d="M142.23 233.07L151.78 252.43L151.07 258.05L150.95 258.1L138.67 233.24L138.93 233.11L142.16 233.58L142.23 233.07Z" fill="#0C0C0C"/>
<path d="M151.62 187.73L149.79 188.2L150.17 187.12L151.62 187.73Z" fill="#0C0C0C"/>
<path d="M151.071 184.49L150.171 187.12L146.641 185.64L151.071 184.49Z" fill="#0C0C0C"/>
<path d="M150.171 187.12L149.791 188.2L141.641 190.28L140.021 187.32L146.641 185.64L150.171 187.12Z" fill="#0C0C0C"/>
<path d="M141.64 190.28L147.19 200.4L146.92 200.57L143.68 200.09L143.6 200.65L138.37 191.11L141.64 190.28Z" fill="#0C0C0C"/>
<path d="M146.921 200.57L146.211 205.4L143.601 200.65L143.681 200.09L146.921 200.57Z" fill="#0C0C0C"/>
<path d="M143.601 200.65L146.211 205.4L142.231 233.07L139.681 227.9L143.601 200.65Z" fill="#0C0C0C"/>
<path d="M138.371 191.11L143.601 200.65L139.681 227.9L123.381 194.93L138.371 191.11Z" fill="#F5D43C"/>
<path d="M139.681 227.9L142.231 233.07L142.161 233.58L138.931 233.11L139.681 227.9Z" fill="#0C0C0C"/>
<path d="M140.021 187.32L141.641 190.28L138.371 191.11L136.761 188.15L140.021 187.32Z" fill="#0C0C0C"/>
<path d="M123.381 194.93L139.681 227.9L138.931 233.11L138.671 233.24L120.141 195.77L123.381 194.93Z" fill="#0C0C0C"/>
<path d="M136.76 188.15L138.37 191.11L123.38 194.93L121.91 191.94L136.76 188.15Z" fill="#0C0C0C"/>
<path d="M121.91 191.94L123.38 194.93L120.14 195.77L118.66 192.76L121.91 191.94Z" fill="#0C0C0C"/>
<path d="M118.66 192.76L120.14 195.77L89.6004 203.54L89.7904 202.54L86.5904 201.89L86.3604 200.99L118.66 192.76Z" fill="#0C0C0C"/>
<path d="M89.7903 202.54L89.6003 203.54L86.0703 204.44L86.5903 201.89L89.7903 202.54Z" fill="#0C0C0C"/>
<path d="M86.3599 200.99L86.5899 201.89L86.0699 204.44L68.3799 208.95C65.9104 209.586 63.6511 210.859 61.8278 212.642C60.0046 214.425 58.6812 216.655 57.9899 219.11L15.7099 370.11C14.9795 372.765 15.0144 375.573 15.8106 378.209C16.6067 380.845 18.1318 383.203 20.2099 385.01L44.7399 406.21L44.1899 408.94L43.6499 409.58L18.0699 387.48C15.5257 385.27 13.6597 382.385 12.688 379.159C11.7164 375.932 11.6789 372.497 12.5799 369.25L54.8399 218.25C55.6834 215.243 57.3027 212.511 59.5352 210.328C61.7678 208.144 64.5352 206.586 67.5599 205.81L86.3599 200.99Z" fill="#0C0C0C"/>
<path d="M54.1306 376.67L53.1006 381.67L52.6506 382.05L50.6006 379.48L54.1306 376.67Z" fill="#0C0C0C"/>
<path d="M53.1003 381.67L47.5802 408.68L44.7402 406.22L50.2302 379.4L50.6003 379.48L52.6502 382.05L53.1003 381.67Z" fill="#0C0C0C"/>
<path d="M47.5804 408.68L47.3904 409.61L44.1904 408.95L44.7404 406.22L47.5804 408.68Z" fill="#0C0C0C"/>
</svg>
