<svg width="403" height="499" viewBox="0 0 403 499" fill="none" xmlns="http://www.w3.org/2000/svg">
<path d="M351.401 79.69C351.863 84.7596 351.712 89.8666 350.951 94.9C347.951 116.16 308.701 178.22 255.841 212.82V220.47L244.201 224.55L257.681 256.85L257.951 257.47L261.48 258.74L329.481 282.98L329.391 284.1C329.071 288.71 321.241 396.89 302.221 418.38C286.851 435.72 246.091 439.48 213.751 439.48C199.331 439.48 186.6 438.73 178.51 438.12L191.331 475.93L125.061 498.38L124.571 496.98L50.5205 278.29L116.801 255.83L117.271 257.25L124.001 277.13L171.461 260.22L173.341 259.56L174.341 259.18L188.561 225.12L175.271 220.47V213.82C132.181 187.03 101.271 146.53 91.8305 127.1C81.1105 105.04 81.8305 76.72 93.7005 56.61C114.311 21.61 159.94 0 212.98 0L214.411 0C249.411 0.26 282.231 7.81 306.901 21.28C333.591 35.83 348.971 56.03 351.401 79.69ZM347.991 94.49C348.72 89.6919 348.865 84.8229 348.421 79.99C343.831 35.2 288.721 3.53 214.421 2.99H213.021C161.021 2.99 116.401 23.99 96.3205 58.13C84.9605 77.41 84.2605 104.6 94.5605 125.8C103.741 144.67 133.561 183.8 175.311 210.28V203.09C139.011 180.43 116.091 147.26 108.221 131.09C99.0305 112.16 99.6705 87.85 109.821 70.6C127.501 40.6 166.581 22.08 212.001 22.08H213.23C278.23 22.54 326.481 50.65 330.551 90.4C330.955 94.7562 330.824 99.1457 330.161 103.47C327.901 119.57 303.321 170.47 255.851 201.15V209.21C310.351 172.82 345.551 111.9 347.991 94.49ZM327.151 103.06C327.778 98.9739 327.902 94.8263 327.521 90.71C323.651 52.55 276.62 25.55 213.201 25.08H211.991C167.611 25.08 129.521 43.08 112.401 72.13C102.731 88.55 102.131 111.72 110.901 129.79C118.501 145.44 140.481 177.32 175.301 199.58V188.72C151.721 174.08 134.741 155.62 123.391 132.26C115.461 115.96 116.021 95.03 124.781 80.17C140.101 54.17 174.121 38.17 213.651 38.46C269.521 38.86 311 63.05 314.5 97.26C314.847 101.023 314.73 104.815 314.151 108.55C311.951 124.22 294.671 164.65 255.301 190.44C255.638 192.758 255.812 195.097 255.821 197.44V197.55C301.411 167.37 325.021 118.6 327.151 103.06ZM326.31 285.06L301.31 276.15C297.83 280.89 282.261 301.64 264.071 319.48C262.261 323.71 246.381 359.71 223.191 371.24L221.451 384.55H216.271L213.951 371.22C190 359.37 174.461 322.83 173.601 320.76C153.871 302.96 136.381 281.84 132.601 277.24L124.931 279.98L167.041 404.27C167.582 404.209 168.126 404.179 168.671 404.18C172.051 404.177 175.339 405.28 178.034 407.32C180.729 409.36 182.682 412.226 183.596 415.48C184.511 418.734 184.336 422.198 183.098 425.343C181.86 428.488 179.627 431.142 176.741 432.9L177.461 435.01C201.951 436.86 278.561 440.57 299.971 416.39C317.371 396.8 325.461 296.83 326.351 285.02L326.31 285.06ZM311.211 108.1C311.739 104.615 311.843 101.08 311.521 97.57C308.151 64.92 267.921 41.85 213.641 41.45H212.641C174.641 41.45 142.041 56.82 127.391 81.7C119.121 95.7 118.611 115.52 126.121 130.96C136.941 153.25 153.121 171.02 175.341 185.17V174.87C134.761 149.44 134.971 119.39 135.001 118.12C135.001 104.35 140.431 91.68 150.691 81.5C165.021 67.25 187.691 59.19 212.821 59.37C257.391 59.7 290.481 79.04 293.281 106.37C293.552 109.37 293.461 112.392 293.01 115.37C291.15 128.58 283.571 161.1 253.241 181.6C253.863 183.428 254.377 185.291 254.781 187.18C292.151 162.15 309.151 122.55 311.211 108.1ZM298.391 275.1L293.471 273.34C287.691 281.34 248.081 334.28 219.121 334.28C218.341 334.28 217.551 334.23 216.791 334.16C188.411 331.16 147.041 283.25 139.871 274.7L135.631 276.19C144.071 286.4 190.431 341.13 217.101 343.91C217.699 343.971 218.299 344.001 218.901 344C245.771 343.96 290.561 285.55 298.391 275.06V275.1ZM290.531 272.29L284.951 270.29C279.821 277.62 247.78 321.65 219.51 321.65C218.602 321.655 217.693 321.605 216.791 321.5C188.621 318.57 152.591 279.88 145.971 272.5L142.891 273.6C151.541 283.75 191.031 328.44 217.101 331.16C243.491 333.88 283.231 282.09 290.531 272.25V272.29ZM290.01 115.03C290.436 112.288 290.52 109.503 290.26 106.74C287.61 80.94 255.751 62.74 212.771 62.4C188.341 62.21 166.521 69.97 152.771 83.67C143.091 93.26 137.98 105.21 137.98 118.19C137.98 118.52 137.881 147.1 175.331 171.37V164.52C175.343 163.907 175.465 163.3 175.691 162.73C142.031 141.54 147.691 123.53 148.001 122.73C155.851 91.13 179.001 73.73 213.001 74.04C250.251 74.31 277.891 90.5 280.251 113.4C280.481 115.923 280.407 118.465 280.031 120.97C279.921 121.72 279.821 122.58 279.701 123.57C278.351 134.77 275.201 160.74 251.351 176.98C251.641 177.56 251.921 178.16 252.171 178.77C280.981 158.92 288.23 127.72 290.01 114.99V115.03ZM282.01 269.26L275.491 266.94C271.231 273.59 247.31 308.94 220.01 308.94C218.93 308.94 217.861 308.88 216.781 308.78C188.371 305.78 159.131 274.93 154.241 269.56L149.021 271.41C157.261 280.41 191.361 315.85 217.091 318.53C243.301 321.22 275.671 278.1 282.021 269.22L282.01 269.26ZM277.01 120.58C277.349 118.313 277.419 116.014 277.221 113.73C275.021 92.4 248.591 77.31 212.931 77.06H212.211C179.631 77.06 158.411 93.16 150.831 123.64C150.741 123.92 145.83 140.5 177.48 160.36C178.14 159.85 178.991 159.23 180.001 158.55C171.321 149.41 164.291 138.6 162.621 133.46C161.44 129.828 161.412 125.919 162.541 122.27C170.051 98.89 186.681 87.55 213.321 87.55C239.411 87.55 266.681 96.69 268.771 117.11C268.771 117.19 269.441 123.91 269.081 126.44C267.931 134.65 261.711 159.69 248.331 171.61C248.891 172.48 249.411 173.36 249.901 174.26C272.341 158.77 275.351 133.93 276.631 123.18C276.771 122.2 276.881 121.3 277.001 120.55L277.01 120.58ZM272.601 265.91L259.521 261.24L256.881 260.3L256.001 260.6L250.51 262.42L247.661 263.42L229.901 269.34C220.593 272.448 210.575 272.744 201.101 270.19L183.801 265.54L180.891 264.75L175.891 263.42L173.471 262.76L172.831 262.99L157.321 268.52C163.981 275.58 191.461 303.18 217.111 305.85C243.001 308.45 267.461 273.67 272.591 265.87L272.601 265.91ZM266.151 126.04C266.266 123.166 266.159 120.287 265.831 117.43C263.901 98.88 238.081 90.55 213.341 90.55C188.161 90.55 172.481 101.2 165.391 123.12C164.452 126.167 164.48 129.43 165.471 132.46C167.071 137.38 174.241 148.16 182.571 156.83C183.171 156.46 183.801 156.08 184.471 155.7C184.371 155.56 184.231 155.43 184.131 155.31C175.571 145.54 171.671 123.22 179.221 112.92C182.817 107.954 187.689 104.053 193.321 101.63C199.051 99.15 205.851 97.92 213.771 97.92C234.771 97.92 256.77 105.32 258.48 121.86C258.754 124.363 258.838 126.884 258.73 129.4C258.64 130.11 258.541 131 258.431 132.04C257.611 139.68 255.921 155.61 245.191 165.53L244.391 166.27C245.201 167.19 245.951 168.15 246.671 169.14C259.151 157.77 265.051 133.91 266.151 126.04ZM255.76 128.99C255.843 126.713 255.753 124.433 255.491 122.17C254.731 114.83 249.231 109.52 241.491 106.04C233.751 102.56 223.641 100.92 213.801 100.92C198.961 100.92 188.451 105.42 181.661 114.69C175.961 122.48 177.83 138.69 183.26 148.69C182.66 143.36 182.781 136.33 184.861 130.69C187.131 124.47 192.681 117.3 206.121 118.34C213.181 118.9 216.331 117.01 219.121 115.34C221.121 114.11 223.071 112.97 225.881 112.97C228.411 112.97 231.68 113.9 236.48 116.53C249.94 123.9 247.981 138.74 246.801 147.59C246.53 149.244 246.379 150.915 246.351 152.59C246.452 155.084 246.395 157.583 246.181 160.07C253.451 150.9 254.811 138.16 255.501 131.67C255.561 130.66 255.651 129.74 255.751 128.99H255.76ZM254.851 257.79L254.151 256.12L241.371 225.55L235.281 227.68L249.281 259.68L252.281 258.68L254.851 257.79ZM252.851 218.35V197.45C252.885 186.769 249.088 176.43 242.151 168.31L242.041 168.4V168.22C238.711 164.346 234.756 161.057 230.341 158.49C220.751 152.834 209.376 151.016 198.501 153.4L198.161 153.49L197.351 153.67L196.051 154.03C192.559 155 189.2 156.397 186.051 158.19C183.615 159.562 181.276 161.099 179.051 162.79C178.788 162.986 178.575 163.241 178.429 163.535C178.283 163.828 178.208 164.152 178.211 164.48V218.35L215.501 231.4L252.851 218.35ZM246.451 260.55L232.451 228.63L215.791 234.55L215.061 234.44L199.491 228.99L184.991 262.73L201.871 267.28C210.781 269.674 220.199 269.392 228.951 266.47L246.451 260.55ZM221.201 368.85C238.531 360.69 252.121 337.06 258.131 325.07C244.701 337.3 230.431 346.95 218.841 346.95C218.156 346.954 217.471 346.917 216.791 346.84C205.921 345.71 192.301 336.78 179.191 325.64C184.781 336.89 198.191 360.49 215.941 368.85L216.641 369.18L218.841 381.54L220.471 369.2L221.201 368.85ZM243.781 147.23C244.279 143.943 244.546 140.625 244.581 137.3C226.821 126.86 211.361 138.93 203.811 146.96C213.491 142.34 231.161 136.61 243.641 148.24C243.691 147.9 243.731 147.55 243.781 147.23ZM242.671 164.23C243.2 160.444 243.41 156.621 243.301 152.8C243.301 152.61 243.301 152.37 243.301 152.16C232.201 139.65 215.071 144.94 205.531 149.44C214.759 148.973 223.923 151.219 231.891 155.9C235.859 158.21 239.484 161.064 242.661 164.38L242.671 164.23ZM244.361 133.76C243.701 128.12 241.361 122.66 234.991 119.18C233.339 118.253 231.617 117.458 229.841 116.8C208.421 122.8 201.941 138.48 200.001 146.8C207.151 138.75 224.371 123.43 244.361 133.76ZM214.23 120.76C211.485 121.396 208.655 121.578 205.851 121.3C200.211 120.86 195.721 121.97 192.461 124.6C187.811 137.68 193.331 145.73 196.561 149.05C197.561 143.22 201.21 129.88 214.23 120.78V120.76ZM182.071 261.9L196.671 227.9L191.431 226.06L178.151 257.82L177.051 260.55L178.411 260.93L182.071 261.9ZM187.321 154.18C189.682 153.025 192.137 152.075 194.661 151.34C192.081 148.683 190.131 145.48 188.956 141.968C187.78 138.456 187.409 134.725 187.871 131.05C184.391 139.69 186.421 151.32 187.321 154.18V154.18ZM187.571 474.05L175.301 437.85L174.301 434.74L174.121 434.2L173.171 431.38L172.23 428.63L171.23 425.79L167.001 413.32L166.001 410.46L165.061 407.69L164.061 404.85L122.151 280.97L121.151 278.13L114.891 259.63L100.531 264.55L106.791 283.3L107.791 286.14L153.791 423.61L154.521 425.81L172.391 479.26L169.561 480.26L104.921 287.1L103.98 284.26L97.7005 265.46L92.1505 267.35L163.931 482.06L161.101 483.06L89.3005 268.3L77.1505 272.43L148.931 487.15L146.091 488.1L74.3005 273.39L68.7405 275.27L140.521 489.99L137.701 490.99L65.9205 276.23L54.3105 280.16L126.961 494.55L137.701 490.92L138.161 492.32L141.001 491.37L140.521 489.95L146.091 488.06L146.561 489.48L149.401 488.48L148.931 487.06L161.081 482.94L161.561 484.35L164.391 483.35L163.911 481.93L169.48 480.05L169.951 481.47L172.791 480.47L172.311 479.05L187.571 474.05ZM175.791 429.99C177.995 428.48 179.658 426.303 180.535 423.779C181.413 421.255 181.46 418.517 180.668 415.965C179.877 413.412 178.289 411.181 176.137 409.596C173.985 408.012 171.383 407.158 168.711 407.16H168.081L169.081 410.06C171.027 410.129 172.907 410.788 174.471 411.951C176.034 413.113 177.207 414.724 177.833 416.569C178.459 418.413 178.509 420.405 177.976 422.279C177.444 424.153 176.353 425.82 174.851 427.06L175.791 429.99ZM175.311 419.69C175.313 418.181 174.798 416.717 173.852 415.541C172.906 414.366 171.585 413.55 170.111 413.23L173.741 423.92C174.753 422.743 175.31 421.242 175.311 419.69V419.69Z" fill="#0C0C0C"/>
<path d="M348.42 79.99C348.864 84.8229 348.72 89.6919 347.99 94.49C345.55 111.9 310.35 172.82 255.84 209.22V201.16C303.31 170.55 327.89 119.55 330.15 103.48C330.814 99.1556 330.945 94.7662 330.54 90.41C326.47 50.66 278.22 22.55 213.22 22.09H211.99C166.57 22.09 127.49 40.63 109.81 70.61C99.6599 87.86 99.0199 112.17 108.21 131.1C116.08 147.28 139 180.45 175.3 203.1V210.29C133.57 183.84 103.73 144.68 94.5499 125.81C84.2499 104.61 84.9499 77.42 96.3099 58.14C116.39 24.05 161.02 3 213.01 3H214.41C288.72 3.55 343.83 35.2 348.42 79.99Z" fill="#F37429"/>
<path d="M327.561 90.7096C327.942 94.8259 327.818 98.9735 327.191 103.06C325.021 118.6 301.411 167.37 255.841 197.57V197.45C255.832 195.107 255.659 192.768 255.321 190.45C294.691 164.62 311.971 124.19 314.151 108.55C314.721 104.824 314.832 101.042 314.481 97.2896C310.981 63.0796 269.481 38.8896 213.631 38.4896C174.101 38.1896 140.081 54.1896 124.761 80.1996C116.001 95.0596 115.441 115.99 123.371 132.29C134.721 155.65 151.701 174.11 175.281 188.75V199.55C140.461 177.29 118.481 145.41 110.881 129.76C102.111 111.69 102.711 88.5196 112.381 72.0996C129.501 43.0196 167.591 25.0996 211.971 25.0996H213.181C276.621 25.5496 323.651 52.5496 327.561 90.7096Z" fill="#F0E40A"/>
<path d="M319.54 318.479C319.544 321.55 318.637 324.553 316.934 327.107C315.231 329.662 312.809 331.655 309.973 332.832C307.138 334.01 304.016 334.32 301.004 333.724C297.993 333.127 295.225 331.651 293.053 329.481C290.88 327.311 289.4 324.546 288.8 321.535C288.199 318.524 288.505 315.402 289.679 312.565C290.854 309.728 292.843 307.303 295.395 305.596C297.948 303.89 300.95 302.979 304.02 302.979C308.13 302.987 312.07 304.622 314.978 307.527C317.887 310.431 319.527 314.369 319.54 318.479ZM304.02 331.009C306.496 331.009 308.916 330.275 310.975 328.9C313.033 327.525 314.638 325.57 315.586 323.283C316.534 320.996 316.782 318.479 316.3 316.051C315.818 313.622 314.626 311.391 312.876 309.64C311.127 307.889 308.897 306.695 306.469 306.211C304.041 305.727 301.524 305.974 299.236 306.92C296.948 307.866 294.992 309.469 293.615 311.526C292.238 313.584 291.502 316.004 291.5 318.479C291.503 321.8 292.822 324.984 295.169 327.333C297.516 329.682 300.699 331.004 304.02 331.009V331.009Z" fill="#7EA398"/>
<path d="M316.54 318.48C316.542 320.956 315.809 323.378 314.435 325.438C313.06 327.498 311.106 329.105 308.818 330.054C306.531 331.003 304.013 331.252 301.584 330.77C299.154 330.288 296.923 329.097 295.171 327.346C293.419 325.596 292.225 323.365 291.741 320.936C291.257 318.507 291.505 315.989 292.452 313.701C293.399 311.413 295.004 309.457 297.063 308.08C299.122 306.704 301.543 305.97 304.02 305.97C307.337 305.975 310.517 307.294 312.864 309.639C315.21 311.984 316.532 315.163 316.54 318.48ZM313.63 318.48C313.63 316.579 313.066 314.721 312.01 313.141C310.954 311.56 309.454 310.329 307.698 309.601C305.942 308.874 304.009 308.684 302.145 309.054C300.281 309.425 298.569 310.34 297.225 311.684C295.881 313.028 294.965 314.741 294.595 316.605C294.224 318.469 294.414 320.401 295.142 322.157C295.869 323.913 297.101 325.414 298.681 326.47C300.261 327.526 302.119 328.09 304.02 328.09C306.568 328.087 309.011 327.074 310.812 325.272C312.614 323.47 313.627 321.028 313.63 318.48V318.48Z" fill="#F06060"/>
<path d="M311.521 97.55C311.843 101.06 311.739 104.595 311.211 108.08C309.211 122.57 292.141 162.08 254.741 187.19C254.337 185.301 253.823 183.438 253.201 181.61C283.531 161.11 291.111 128.61 292.971 115.38C293.421 112.402 293.512 109.38 293.241 106.38C290.441 79.04 257.351 59.7 212.781 59.38C187.681 59.2 164.981 67.26 150.651 81.51C140.391 91.69 134.961 104.36 134.961 118.13C134.961 119.4 134.721 149.45 175.301 174.88V185.18C153.051 171.03 136.901 153.26 126.081 130.97C118.571 115.53 119.081 95.73 127.351 81.71C142.001 56.83 174.611 41.46 212.601 41.46H213.601C267.921 41.85 308.151 64.92 311.521 97.55Z" fill="#F37429"/>
<path d="M304.02 308.88C305.921 308.878 307.781 309.44 309.363 310.495C310.945 311.551 312.178 313.051 312.906 314.808C313.635 316.564 313.826 318.497 313.456 320.362C313.085 322.227 312.17 323.941 310.825 325.285C309.481 326.63 307.767 327.545 305.902 327.916C304.037 328.286 302.104 328.095 300.348 327.366C298.591 326.638 297.091 325.405 296.035 323.823C294.98 322.241 294.418 320.381 294.42 318.48C294.425 315.935 295.438 313.497 297.237 311.698C299.037 309.898 301.475 308.885 304.02 308.88ZM310.64 318.48C310.64 317.171 310.252 315.891 309.524 314.802C308.797 313.713 307.763 312.865 306.553 312.364C305.344 311.863 304.013 311.732 302.728 311.987C301.444 312.243 300.265 312.873 299.339 313.799C298.413 314.725 297.783 315.904 297.527 317.188C297.272 318.473 297.403 319.804 297.904 321.013C298.405 322.223 299.253 323.257 300.342 323.984C301.431 324.712 302.711 325.1 304.02 325.1C305.775 325.097 307.457 324.399 308.698 323.158C309.939 321.917 310.637 320.235 310.64 318.48Z" fill="#7EA398"/>
<path d="M304.02 311.87C305.33 311.868 306.612 312.255 307.702 312.982C308.792 313.708 309.642 314.742 310.144 315.952C310.647 317.162 310.779 318.494 310.523 319.779C310.268 321.064 309.638 322.245 308.711 323.171C307.785 324.098 306.604 324.728 305.319 324.983C304.034 325.239 302.702 325.107 301.492 324.604C300.282 324.102 299.248 323.252 298.522 322.162C297.795 321.072 297.408 319.79 297.41 318.48C297.415 316.729 298.114 315.05 299.352 313.812C300.59 312.573 302.269 311.875 304.02 311.87V311.87Z" fill="#F0E40A"/>
<path d="M307.25 369.909C307.252 372.386 306.519 374.808 305.145 376.868C303.77 378.928 301.816 380.534 299.528 381.484C297.241 382.433 294.723 382.682 292.294 382.2C289.864 381.718 287.632 380.526 285.881 378.776C284.129 377.025 282.935 374.795 282.451 372.366C281.967 369.937 282.215 367.419 283.162 365.131C284.109 362.842 285.714 360.886 287.773 359.51C289.832 358.134 292.253 357.399 294.73 357.399C298.047 357.405 301.227 358.724 303.574 361.069C305.92 363.413 307.242 366.592 307.25 369.909V369.909ZM304.33 369.909C304.328 368.009 303.762 366.151 302.705 364.572C301.647 362.993 300.145 361.763 298.388 361.037C296.632 360.312 294.699 360.123 292.835 360.496C290.972 360.869 289.26 361.786 287.918 363.131C286.575 364.477 285.662 366.19 285.293 368.054C284.924 369.919 285.116 371.851 285.845 373.606C286.574 375.361 287.808 376.861 289.389 377.915C290.971 378.97 292.829 379.531 294.73 379.529C297.278 379.524 299.72 378.508 301.519 376.705C303.319 374.901 304.33 372.457 304.33 369.909V369.909Z" fill="#F06060"/>
<path d="M294.731 354.41C297.799 354.408 300.799 355.316 303.351 357.02C305.903 358.723 307.893 361.146 309.068 363.98C310.243 366.815 310.551 369.934 309.953 372.944C309.355 375.953 307.877 378.718 305.708 380.887C303.538 383.057 300.773 384.534 297.764 385.133C294.754 385.731 291.635 385.423 288.8 384.248C285.966 383.072 283.544 381.083 281.84 378.531C280.137 375.979 279.228 372.979 279.23 369.91C279.236 365.801 280.871 361.862 283.776 358.956C286.682 356.05 290.621 354.415 294.731 354.41ZM294.731 382.41C297.207 382.412 299.629 381.68 301.689 380.305C303.749 378.931 305.355 376.976 306.305 374.688C307.254 372.401 307.503 369.883 307.021 367.454C306.539 365.024 305.348 362.793 303.597 361.041C301.846 359.289 299.616 358.095 297.187 357.611C294.758 357.128 292.24 357.375 289.952 358.322C287.663 359.27 285.707 360.874 284.331 362.933C282.955 364.993 282.22 367.414 282.22 369.89C282.22 373.211 283.538 376.396 285.883 378.747C288.228 381.098 291.41 382.422 294.731 382.43V382.41Z" fill="#7EA398"/>
<path d="M294.73 360.3C296.634 360.298 298.495 360.861 300.078 361.917C301.662 362.973 302.897 364.476 303.626 366.234C304.355 367.992 304.547 369.927 304.176 371.794C303.805 373.661 302.888 375.376 301.542 376.722C300.196 378.068 298.481 378.985 296.614 379.355C294.747 379.726 292.812 379.535 291.054 378.806C289.296 378.076 287.794 376.842 286.737 375.258C285.681 373.675 285.118 371.813 285.12 369.91C285.123 367.362 286.136 364.919 287.938 363.117C289.739 361.316 292.182 360.302 294.73 360.3V360.3ZM301.34 369.91C301.338 368.6 300.948 367.321 300.219 366.234C299.49 365.146 298.455 364.299 297.244 363.8C296.034 363.301 294.703 363.172 293.419 363.429C292.135 363.686 290.956 364.319 290.032 365.246C289.108 366.173 288.479 367.354 288.225 368.638C287.972 369.923 288.105 371.254 288.608 372.462C289.111 373.671 289.961 374.704 291.051 375.43C292.14 376.155 293.421 376.542 294.73 376.54C295.599 376.538 296.46 376.366 297.263 376.032C298.065 375.698 298.794 375.209 299.408 374.594C300.022 373.978 300.509 373.248 300.84 372.444C301.172 371.64 301.341 370.779 301.34 369.91Z" fill="#7EA398"/>
<path d="M294.73 363.29C296.043 363.288 297.326 363.675 298.418 364.403C299.509 365.131 300.361 366.166 300.864 367.378C301.367 368.59 301.499 369.924 301.243 371.211C300.988 372.498 300.356 373.68 299.429 374.608C298.501 375.536 297.318 376.168 296.031 376.423C294.744 376.679 293.41 376.547 292.199 376.043C290.987 375.54 289.951 374.689 289.224 373.597C288.496 372.505 288.108 371.222 288.11 369.91C288.11 368.154 288.808 366.471 290.049 365.229C291.291 363.988 292.975 363.29 294.73 363.29Z" fill="#F0E40A"/>
<path d="M293.471 273.3L298.391 275.06C290.561 285.54 245.771 343.96 218.901 343.96C218.3 343.96 217.699 343.93 217.101 343.87C190.431 341.09 144.101 286.36 135.631 276.15L139.871 274.66C147.041 283.21 188.411 331.16 216.791 334.12C217.551 334.19 218.341 334.24 219.121 334.24C248.081 334.24 287.691 281.27 293.471 273.3Z" fill="#F0E40A"/>
<path d="M284.951 270.26L290.531 272.26C283.231 282.1 243.531 333.89 217.101 331.15C191.031 328.43 151.541 283.74 142.891 273.59L145.971 272.49C152.591 279.86 188.621 318.55 216.791 321.49C217.693 321.595 218.602 321.645 219.511 321.64C247.781 321.62 279.821 277.55 284.951 270.26Z" fill="#F37429"/>
<path d="M290.26 106.7C290.52 109.463 290.436 112.247 290.01 114.99C288.23 127.72 281.01 158.92 252.1 178.76C251.85 178.15 251.57 177.55 251.28 176.97C275.13 160.73 278.28 134.76 279.63 123.56C279.75 122.56 279.85 121.71 279.96 120.96C280.337 118.454 280.411 115.913 280.18 113.39C277.82 90.4896 250.18 74.2996 212.93 74.0296C178.93 73.7596 155.82 91.1196 147.93 122.72C147.66 123.49 141.93 141.5 175.62 162.72C175.394 163.29 175.272 163.896 175.26 164.51V171.36C137.81 147.09 137.91 118.51 137.91 118.18C137.91 105.18 143.02 93.2496 152.7 83.6596C166.48 69.9596 188.3 62.1996 212.7 62.3896C255.75 62.6796 287.61 80.8996 290.26 106.7Z" fill="#8DBFB2"/>
<path d="M275.5 266.899L282.02 269.219C275.67 278.099 243.3 321.219 217.1 318.499C191.37 315.819 157.27 280.339 149.03 271.379L154.25 269.549C159.14 274.919 188.38 305.809 216.79 308.769C217.87 308.869 218.94 308.929 220.02 308.929C247.32 308.909 271.24 273.549 275.5 266.899Z" fill="#F0E40A"/>
<path d="M280.71 410.22C280.714 412.698 279.984 415.121 278.611 417.184C277.237 419.246 275.284 420.855 272.996 421.808C270.709 422.76 268.19 423.013 265.759 422.534C263.328 422.055 261.094 420.866 259.338 419.118C257.583 417.369 256.385 415.139 255.896 412.71C255.408 410.281 255.651 407.762 256.594 405.47C257.537 403.179 259.138 401.219 261.195 399.838C263.252 398.456 265.673 397.716 268.15 397.71C271.474 397.707 274.662 399.023 277.017 401.368C279.372 403.713 280.7 406.897 280.71 410.22V410.22ZM277.79 410.22C277.788 408.319 277.223 406.462 276.165 404.883C275.108 403.303 273.606 402.073 271.849 401.348C270.092 400.622 268.16 400.434 266.296 400.807C264.432 401.179 262.721 402.096 261.378 403.442C260.035 404.787 259.122 406.5 258.753 408.365C258.384 410.23 258.577 412.162 259.306 413.917C260.035 415.672 261.268 417.172 262.85 418.226C264.431 419.28 266.29 419.842 268.19 419.84C269.452 419.839 270.702 419.589 271.867 419.105C273.033 418.62 274.091 417.911 274.983 417.018C275.874 416.125 276.581 415.065 277.063 413.898C277.544 412.732 277.792 411.482 277.79 410.22V410.22Z" fill="#F06060"/>
<path d="M268.151 394.72C271.218 394.722 274.217 395.633 276.766 397.339C279.316 399.045 281.302 401.469 282.474 404.304C283.646 407.138 283.951 410.257 283.351 413.265C282.75 416.274 281.272 419.036 279.101 421.204C276.931 423.372 274.166 424.847 271.157 425.444C268.148 426.04 265.03 425.731 262.196 424.555C259.363 423.38 256.942 421.39 255.239 418.838C253.537 416.287 252.629 413.287 252.631 410.22C252.636 406.107 254.274 402.165 257.184 399.258C260.094 396.352 264.038 394.72 268.151 394.72ZM268.151 422.72C270.626 422.718 273.045 421.982 275.103 420.606C277.16 419.229 278.763 417.274 279.71 414.986C280.656 412.699 280.903 410.182 280.42 407.755C279.936 405.327 278.744 403.097 276.994 401.347C275.243 399.596 273.014 398.404 270.586 397.921C268.158 397.437 265.642 397.684 263.354 398.631C261.067 399.577 259.111 401.18 257.735 403.238C256.359 405.295 255.623 407.714 255.621 410.19C255.618 413.516 256.937 416.708 259.286 419.063C261.636 421.418 264.824 422.744 268.151 422.75V422.72Z" fill="#7EA398"/>
<path d="M277.21 113.69C277.409 115.974 277.339 118.273 277 120.54C276.88 121.3 276.77 122.2 276.65 123.2C275.37 133.95 272.36 158.79 249.92 174.28C249.43 173.38 248.92 172.5 248.35 171.63C261.73 159.71 267.95 134.63 269.1 126.46C269.46 123.93 268.79 117.21 268.79 117.13C266.7 96.71 239.43 87.55 213.34 87.55C186.7 87.55 170.07 98.87 162.55 122.19C161.422 125.839 161.45 129.748 162.63 133.38C164.3 138.52 171.33 149.38 180.01 158.47C179.01 159.15 178.15 159.77 177.49 160.28C145.81 140.42 150.75 123.84 150.84 123.56C158.42 93.08 179.64 76.98 212.22 76.98H212.94C248.58 77.27 275.01 92.36 277.21 113.69Z" fill="#F37429"/>
<path d="M268.15 400.62C270.051 400.62 271.91 401.184 273.49 402.24C275.071 403.297 276.302 404.798 277.029 406.555C277.757 408.311 277.946 410.244 277.575 412.109C277.203 413.973 276.287 415.685 274.942 417.029C273.597 418.373 271.884 419.287 270.019 419.657C268.154 420.026 266.221 419.835 264.466 419.106C262.71 418.377 261.209 417.144 260.155 415.562C259.1 413.98 258.538 412.121 258.54 410.22C258.543 407.673 259.556 405.231 261.358 403.431C263.16 401.631 265.603 400.62 268.15 400.62V400.62ZM274.76 410.22C274.76 408.91 274.372 407.63 273.644 406.541C272.916 405.452 271.881 404.604 270.671 404.103C269.461 403.602 268.129 403.472 266.845 403.728C265.56 403.984 264.381 404.616 263.455 405.543C262.53 406.469 261.9 407.65 261.646 408.935C261.392 410.22 261.524 411.551 262.027 412.76C262.529 413.97 263.379 415.003 264.469 415.729C265.559 416.456 266.84 416.842 268.15 416.84C269.022 416.845 269.887 416.678 270.694 416.348C271.501 416.017 272.235 415.53 272.853 414.915C273.472 414.299 273.962 413.568 274.296 412.762C274.63 411.956 274.801 411.092 274.8 410.22H274.76Z" fill="#7EA398"/>
<path d="M268.15 403.609C269.46 403.609 270.74 403.998 271.829 404.726C272.918 405.454 273.767 406.488 274.267 407.698C274.768 408.909 274.899 410.24 274.642 411.525C274.386 412.809 273.755 413.989 272.828 414.914C271.901 415.839 270.72 416.469 269.436 416.723C268.151 416.978 266.819 416.845 265.61 416.343C264.4 415.84 263.367 414.99 262.641 413.9C261.915 412.81 261.528 411.529 261.53 410.219C261.53 409.351 261.702 408.49 262.034 407.688C262.367 406.885 262.855 406.156 263.47 405.542C264.085 404.928 264.815 404.441 265.618 404.11C266.421 403.778 267.281 403.608 268.15 403.609V403.609Z" fill="#F0E40A"/>
<path d="M259.511 261.2L272.591 265.87C267.461 273.67 243.001 308.45 217.101 305.77C191.451 303.1 163.971 275.5 157.311 268.44L172.821 262.91L173.461 262.68L175.881 263.34L180.881 264.67L183.791 265.46L201.091 270.11C210.565 272.664 220.583 272.368 229.891 269.26L247.651 263.34L250.501 262.34L255.991 260.52L256.871 260.22L259.511 261.2Z" fill="#F37429"/>
<path d="M265.82 117.43C266.149 120.287 266.256 123.166 266.14 126.04C265.05 133.91 259.14 157.77 246.65 169.15C245.93 168.15 245.18 167.2 244.37 166.28L245.17 165.54C255.9 155.62 257.59 139.69 258.41 132.05C258.52 131.05 258.62 130.12 258.71 129.41C258.818 126.894 258.734 124.373 258.46 121.87C256.75 105.33 234.79 97.9298 213.75 97.9298C205.83 97.9298 199.03 99.1598 193.3 101.64C187.668 104.063 182.796 107.964 179.2 112.93C171.65 123.23 175.55 145.55 184.11 155.32C184.21 155.44 184.35 155.57 184.45 155.71C183.78 156.09 183.15 156.47 182.55 156.84C174.22 148.17 167.05 137.39 165.45 132.47C164.46 129.439 164.432 126.177 165.37 123.13C172.46 101.21 188.15 90.5498 213.32 90.5498C238.08 90.5498 263.9 98.8798 265.82 117.43Z" fill="#F0E40A"/>
<path d="M255.48 122.17C255.743 124.433 255.833 126.713 255.75 128.99C255.65 129.74 255.56 130.66 255.44 131.72C254.75 138.21 253.39 150.95 246.12 160.12C246.335 157.633 246.392 155.134 246.29 152.64C246.319 150.964 246.469 149.293 246.74 147.64C247.92 138.79 249.88 123.95 236.42 116.58C231.62 113.95 228.35 113.02 225.82 113.02C223.01 113.02 221.11 114.16 219.06 115.39C216.28 117.03 213.13 118.92 206.06 118.39C192.62 117.39 187.06 124.52 184.8 130.74C182.72 136.41 182.6 143.44 183.2 148.74C177.77 138.68 175.9 122.5 181.6 114.74C188.39 105.47 198.9 100.97 213.74 100.97C223.58 100.97 233.64 102.62 241.43 106.09C249.22 109.56 254.72 114.83 255.48 122.17Z" fill="#F37429"/>
<path d="M254.14 256.12L254.84 257.79L252.3 258.63L249.29 259.63L235.28 227.67L241.37 225.54L254.14 256.12Z" fill="#EF9634"/>
<path d="M252.84 197.45V218.35L215.58 231.4L178.29 218.35V164.48C178.288 164.152 178.363 163.828 178.508 163.535C178.654 163.241 178.867 162.986 179.13 162.79C181.356 161.099 183.695 159.562 186.13 158.19C189.279 156.397 192.638 155 196.13 154.03L197.43 153.67L198.24 153.49L198.58 153.4C209.455 151.016 220.83 152.834 230.42 158.49C234.836 161.057 238.791 164.346 242.12 168.22V168.4L242.23 168.31C249.135 176.443 252.899 186.781 252.84 197.45Z" fill="#F1A64B"/>
<path d="M232.44 228.67L246.44 260.59L228.94 266.42C220.189 269.342 210.771 269.624 201.86 267.23L184.98 262.68L199.48 228.94L215.05 234.39L215.78 234.5L232.44 228.67Z" fill="#F1A64B"/>
<path d="M258.15 325.069C252.15 337.069 238.55 360.689 221.22 368.849L220.49 369.199L218.84 381.549L216.64 369.189L215.94 368.859C198.21 360.499 184.78 336.859 179.19 325.649C192.3 336.789 205.92 345.719 216.79 346.849C217.471 346.927 218.156 346.963 218.84 346.959C230.43 346.949 244.7 337.299 258.15 325.069Z" fill="#F37429"/>
<path d="M244.581 137.3C244.546 140.624 244.279 143.943 243.781 147.23C243.731 147.59 243.691 147.9 243.641 148.23C231.161 136.6 213.491 142.33 203.811 146.95C211.361 138.93 226.821 126.86 244.581 137.3Z" fill="#F37429"/>
<path d="M243.3 152.8C243.41 156.621 243.199 160.444 242.67 164.23V164.38C239.494 161.064 235.869 158.21 231.9 155.9C223.933 151.219 214.769 148.973 205.54 149.44C215.08 144.94 232.21 139.65 243.31 152.16C243.3 152.37 243.28 152.61 243.3 152.8Z" fill="#F0E40A"/>
<path d="M234.99 119.18C241.34 122.66 243.7 128.12 244.36 133.76C224.36 123.43 207.16 138.76 200 146.76C201.94 138.45 208.42 122.76 229.84 116.76C231.617 117.43 233.339 118.239 234.99 119.18V119.18Z" fill="#8DBFB2"/>
<path d="M229.48 419.69C229.478 422.166 228.742 424.586 227.365 426.644C225.988 428.702 224.031 430.305 221.742 431.251C219.454 432.197 216.936 432.443 214.508 431.958C212.08 431.473 209.85 430.278 208.1 428.526C206.351 426.774 205.16 424.542 204.679 422.113C204.198 419.684 204.448 417.167 205.397 414.88C206.347 412.593 207.953 410.639 210.013 409.265C212.073 407.891 214.494 407.158 216.97 407.16C220.29 407.165 223.472 408.488 225.818 410.837C228.163 413.186 229.48 416.37 229.48 419.69V419.69ZM226.57 419.69C226.574 417.788 226.014 415.928 224.96 414.345C223.906 412.761 222.406 411.527 220.65 410.796C218.893 410.066 216.96 409.874 215.094 410.243C213.228 410.612 211.514 411.527 210.169 412.871C208.823 414.216 207.907 415.929 207.535 417.794C207.164 419.659 207.355 421.593 208.083 423.35C208.811 425.107 210.044 426.608 211.627 427.664C213.209 428.72 215.068 429.282 216.97 429.28C219.513 429.275 221.95 428.263 223.749 426.466C225.548 424.669 226.563 422.233 226.57 419.69V419.69Z" fill="#F06060"/>
<path d="M216.97 404.17C220.037 404.172 223.034 405.083 225.583 406.788C228.132 408.493 230.119 410.915 231.292 413.749C232.464 416.583 232.77 419.701 232.172 422.708C231.573 425.716 230.096 428.479 227.927 430.647C225.759 432.816 222.996 434.293 219.988 434.891C216.981 435.49 213.863 435.184 211.029 434.011C208.196 432.839 205.773 430.852 204.068 428.303C202.363 425.754 201.452 422.757 201.45 419.69C201.453 415.575 203.089 411.629 205.999 408.719C208.909 405.809 212.855 404.173 216.97 404.17V404.17ZM216.97 432.17C219.446 432.168 221.866 431.432 223.924 430.054C225.982 428.677 227.585 426.72 228.531 424.432C229.477 422.143 229.723 419.626 229.238 417.198C228.753 414.769 227.558 412.539 225.806 410.79C224.054 409.04 221.822 407.85 219.393 407.369C216.964 406.887 214.447 407.137 212.16 408.087C209.873 409.036 207.919 410.643 206.545 412.703C205.171 414.763 204.438 417.184 204.44 419.66C204.439 421.306 204.762 422.937 205.391 424.458C206.02 425.979 206.943 427.362 208.107 428.526C209.27 429.691 210.652 430.615 212.173 431.245C213.694 431.875 215.324 432.2 216.97 432.2V432.17Z" fill="#7EA398"/>
<path d="M216.97 410.069C218.871 410.069 220.728 410.633 222.308 411.688C223.888 412.744 225.12 414.244 225.848 415.999C226.576 417.755 226.766 419.687 226.396 421.55C226.026 423.414 225.112 425.127 223.769 426.471C222.426 427.815 220.715 428.732 218.851 429.103C216.988 429.475 215.056 429.287 213.3 428.561C211.544 427.835 210.042 426.605 208.985 425.026C207.928 423.447 207.362 421.59 207.36 419.689C207.36 417.14 208.373 414.694 210.174 412.891C211.976 411.087 214.421 410.072 216.97 410.069V410.069ZM223.58 419.689C223.584 418.379 223.199 417.097 222.474 416.005C221.748 414.914 220.715 414.062 219.505 413.558C218.295 413.054 216.963 412.921 215.677 413.175C214.392 413.429 213.21 414.059 212.283 414.985C211.355 415.911 210.724 417.091 210.468 418.377C210.212 419.662 210.343 420.994 210.845 422.205C211.347 423.416 212.197 424.45 213.288 425.177C214.378 425.904 215.66 426.291 216.97 426.289C218.721 426.287 220.399 425.591 221.638 424.354C222.877 423.117 223.575 421.44 223.58 419.689V419.689Z" fill="#7EA398"/>
<path d="M216.971 413.06C218.279 413.06 219.559 413.448 220.647 414.175C221.736 414.902 222.584 415.935 223.086 417.144C223.587 418.353 223.719 419.683 223.464 420.967C223.209 422.251 222.58 423.431 221.655 424.357C220.73 425.283 219.552 425.915 218.268 426.171C216.985 426.428 215.654 426.298 214.444 425.799C213.234 425.299 212.2 424.452 211.471 423.365C210.742 422.277 210.353 420.998 210.351 419.69C210.349 418.819 210.52 417.957 210.852 417.153C211.184 416.349 211.671 415.618 212.286 415.002C212.901 414.386 213.631 413.898 214.435 413.564C215.239 413.231 216.1 413.06 216.971 413.06V413.06Z" fill="#F0E40A"/>
<path d="M205.85 121.32C208.654 121.598 211.485 121.416 214.23 120.78C201.23 129.88 197.56 143.22 196.56 149.07C193.33 145.75 187.81 137.7 192.46 124.62C195.72 121.99 200.21 120.88 205.85 121.32Z" fill="#F37429"/>
<path d="M196.661 227.949L182.071 261.909L178.411 260.919L177.051 260.539L178.191 257.819L191.431 226.109L196.661 227.949Z" fill="#EF9634"/>
<path d="M194.66 151.34C192.137 152.075 189.681 153.025 187.32 154.18C186.42 151.32 184.39 139.69 187.87 131.05C187.409 134.724 187.78 138.456 188.955 141.968C190.131 145.48 192.08 148.683 194.66 151.34V151.34Z" fill="#F0E40A"/>
<path d="M181.221 419.689C181.217 421.718 180.72 423.714 179.775 425.509C178.829 427.303 177.462 428.84 175.791 429.989L174.791 427.089C176.293 425.85 177.384 424.182 177.916 422.308C178.449 420.435 178.399 418.443 177.773 416.598C177.147 414.753 175.974 413.143 174.411 411.98C172.847 410.818 170.967 410.158 169.021 410.089L168.021 407.189H168.651C171.975 407.182 175.166 408.494 177.523 410.838C179.88 413.182 181.21 416.365 181.221 419.689V419.689Z" fill="#6A6BA7"/>
<path d="M170.15 413.229C171.625 413.55 172.945 414.365 173.892 415.541C174.838 416.716 175.353 418.181 175.35 419.69C175.35 421.242 174.793 422.743 173.78 423.919L170.15 413.229Z" fill="#F0E40A"/>
<path d="M172.31 479.22L172.79 480.64L169.95 481.6L169.48 480.18L172.31 479.22Z" fill="#0C0C0C"/>
<path d="M163.91 482.06L164.39 483.48L161.56 484.44L161.08 483.03L163.91 482.06Z" fill="#0C0C0C"/>
<path d="M148.963 487.111L146.12 488.069L146.599 489.491L149.442 488.533L148.963 487.111Z" fill="#0C0C0C"/>
<path d="M140.52 489.99L141 491.41L138.16 492.36L137.7 490.96L140.52 489.99Z" fill="#0C0C0C"/>
</svg>
