<svg width="403" height="540" viewBox="0 0 403 540" fill="none" xmlns="http://www.w3.org/2000/svg">
<path d="M313.851 260L312.491 263.14L310.391 267.99C308.221 272.99 306.051 277.99 303.801 282.9C305.611 277.77 307.471 272.68 309.361 267.58L311.171 262.73L295.801 258.06L199.381 432.17L108.451 257.43L91.0306 262.73L92.8206 267.58C94.7106 272.68 96.5906 277.77 98.4006 282.9C96.1506 278 93.9806 273 91.8106 268L89.7106 263.15L88.3506 260L89.8106 259.46V259.55L106.811 254.36L110.111 253.36L118.591 250.78L122.011 249.78L129.621 247.46L133.721 246.22L144.211 243L147.621 242L147.971 240.95L166.451 187.11L145.151 168L160.981 123.53L146.901 99.62H146.851L199.431 0L251.991 99.59L237.851 123.57L253.681 168L233.831 186.49L252.431 240.67L252.661 241.37L256.661 242.57L267.511 245.87L271.661 247.14L282.491 250.43L285.971 251.48L294.151 254L297.451 255L312.321 259.53V259.44L313.851 260ZM199.461 425L292.461 257.06L283.731 254.39L199.361 363.39L120.721 253.7L111.721 256.43L199.461 425ZM199.461 357.66L280.251 253.33L268.071 249.62L199.411 296.8L180.151 283.14L133.151 249.9L124.151 252.65L160.241 303L199.461 357.66ZM199.411 292.66L263.911 248.36L254.001 245.36L251.711 244.67L250.371 245.23L243.371 248.14L240.231 249.45L204.951 264.08C203.212 264.794 201.35 265.161 199.471 265.16C197.567 265.164 195.683 264.783 193.931 264.04L159.471 249.48L156.341 248.16L150.001 245.48L149.091 245.09L146.251 245.94L137.251 248.69L199.411 292.66ZM249.711 167.06L234.151 123.21L246.051 103.01H152.801L164.721 123.21L149.151 167L191.721 205.05L200.591 212.88L249.711 167.06ZM249.291 242L248.661 240.19L231.151 189L225.081 194.68L242.301 244.86L246.671 243.05L249.291 242ZM248.151 99.62L199.431 7.29L150.691 99.62H248.151ZM239.151 246.21L222.341 197.21L200.631 217.44L189.461 207.56L177.511 196.88L160.601 246.2L195.261 260.86C197.95 261.971 200.971 261.971 203.661 260.86L239.151 246.21ZM157.461 244.92L174.781 194.48L169.221 189.48L151.651 240.71L151.121 242.2L154.171 243.49L157.461 244.92Z" fill="#0C0C0C"/>
<path d="M299 356.9L309.36 374.83L291.42 385.17L281.07 367.25L299 356.9ZM304.71 373.58L297.76 361.53L285.71 368.53L292.66 380.58L304.71 373.58Z" fill="#79A4AD"/>
<path d="M297.76 361.52L304.71 373.58L292.66 380.54L285.71 368.49L297.76 361.52Z" fill="#AC99C9"/>
<path d="M286.851 335.83L297.151 353.76L279.221 364.12L268.881 346.19L286.851 335.83ZM292.561 352.53L285.561 340.53L273.511 347.47L280.511 359.52L292.561 352.53Z" fill="#79A4AD"/>
<path d="M285.59 340.48L292.56 352.53L280.51 359.48L273.54 347.42L285.59 340.48Z" fill="#AC99C9"/>
<path d="M292.481 257.06L199.461 425L111.761 256.43L120.721 253.7L199.381 363.34L283.751 254.39L292.481 257.06Z" fill="#F3ED6D"/>
<path d="M280.27 253.33L199.48 357.66L160.24 303L164.33 300.07C165.113 301.229 166.142 302.201 167.344 302.915C168.547 303.629 169.892 304.068 171.284 304.202C172.676 304.335 174.08 304.158 175.396 303.685C176.712 303.211 177.907 302.452 178.895 301.463C179.883 300.473 180.64 299.277 181.111 297.961C181.583 296.644 181.757 295.24 181.622 293.848C181.487 292.456 181.045 291.111 180.329 289.91C179.613 288.709 178.64 287.681 177.48 286.9L180.12 283.17L199.41 296.83L268.09 249.65L280.27 253.33ZM237.44 294.73C237.438 292.855 236.88 291.023 235.837 289.465C234.794 287.907 233.312 286.694 231.579 285.978C229.846 285.263 227.94 285.077 226.101 285.445C224.262 285.812 222.574 286.717 221.25 288.044C219.925 289.371 219.024 291.061 218.66 292.901C218.297 294.74 218.486 296.646 219.206 298.377C219.925 300.109 221.142 301.588 222.702 302.628C224.262 303.668 226.095 304.222 227.97 304.22C230.484 304.215 232.892 303.213 234.668 301.434C236.443 299.655 237.44 297.244 237.44 294.73V294.73ZM207.21 324.93C207.212 323.053 206.657 321.216 205.615 319.654C204.573 318.092 203.091 316.874 201.357 316.155C199.622 315.435 197.713 315.246 195.871 315.612C194.029 315.978 192.338 316.882 191.01 318.21C189.682 319.538 188.778 321.23 188.412 323.071C188.046 324.913 188.235 326.822 188.955 328.557C189.674 330.291 190.892 331.773 192.454 332.815C194.016 333.857 195.852 334.412 197.73 334.41C200.243 334.405 202.651 333.405 204.428 331.628C206.204 329.851 207.205 327.443 207.21 324.93V324.93Z" fill="#AC99C9"/>
<path d="M263.931 248.36L199.431 292.66L137.261 248.66L146.261 245.91L149.101 245.06L150.011 245.45L156.351 248.13L159.481 249.45L193.921 264C195.673 264.743 197.557 265.124 199.461 265.12C201.34 265.121 203.202 264.754 204.941 264.04L240.221 249.41L243.361 248.1L250.361 245.19L251.701 244.63L253.991 245.32L263.931 248.36Z" fill="#9CD2A4"/>
<path d="M234.14 123.22L249.73 167.06L200.55 212.91L191.68 205.07L149.11 167.03L164.72 123.22L152.8 103.01H246.04L234.14 123.22Z" fill="#F1A64B"/>
<path d="M248.66 240.18L249.29 241.99L246.63 243.09L242.26 244.9L225.04 194.72L231.1 189.04L248.66 240.18Z" fill="#EF9634"/>
<path d="M199.43 7.29004L248.15 99.62H150.69L199.43 7.29004Z" fill="#DB2128"/>
<path d="M237.22 393.13C239.101 393.124 240.941 393.676 242.507 394.717C244.074 395.758 245.296 397.24 246.019 398.976C246.743 400.712 246.934 402.623 246.57 404.469C246.206 406.314 245.303 408.009 243.975 409.34C242.646 410.671 240.953 411.578 239.108 411.946C237.264 412.314 235.352 412.126 233.615 411.407C231.877 410.687 230.392 409.468 229.348 407.904C228.304 406.339 227.748 404.501 227.75 402.62C227.753 400.107 228.751 397.698 230.525 395.919C232.3 394.141 234.707 393.138 237.22 393.13V393.13ZM243.32 402.62C243.316 401.417 242.956 400.242 242.285 399.243C241.614 398.244 240.662 397.467 239.549 397.009C238.436 396.551 237.213 396.432 236.033 396.669C234.854 396.905 233.77 397.486 232.92 398.337C232.07 399.189 231.491 400.273 231.257 401.453C231.022 402.633 231.143 403.856 231.603 404.968C232.063 406.08 232.842 407.031 233.841 407.7C234.841 408.37 236.017 408.728 237.22 408.73C238.839 408.727 240.39 408.082 241.534 406.937C242.678 405.791 243.32 404.239 243.32 402.62V402.62Z" fill="#AC99C9"/>
<path d="M237.221 396.52C238.431 396.514 239.615 396.867 240.624 397.535C241.633 398.204 242.421 399.156 242.888 400.273C243.355 401.389 243.479 402.619 243.246 403.807C243.013 404.994 242.432 406.086 241.578 406.943C240.724 407.8 239.634 408.384 238.448 408.621C237.261 408.858 236.031 408.738 234.912 408.274C233.794 407.811 232.839 407.027 232.168 406.02C231.496 405.013 231.139 403.83 231.141 402.62C231.143 401.006 231.784 399.459 232.923 398.316C234.062 397.173 235.607 396.528 237.221 396.52V396.52Z" fill="#F3ED6D"/>
<path d="M222.31 197.25L239.12 246.25L203.63 260.98C200.941 262.091 197.92 262.091 195.23 260.98L160.57 246.32L177.48 197L189.43 207.68L200.6 217.56L222.31 197.25Z" fill="#F1A64B"/>
<path d="M227.97 285.24C229.847 285.24 231.682 285.797 233.243 286.84C234.803 287.882 236.02 289.365 236.738 291.099C237.456 292.833 237.644 294.741 237.278 296.582C236.912 298.423 236.008 300.113 234.681 301.441C233.354 302.768 231.663 303.672 229.822 304.038C227.981 304.404 226.073 304.216 224.339 303.498C222.605 302.78 221.123 301.563 220.08 300.003C219.037 298.442 218.48 296.607 218.48 294.73C218.48 292.213 219.48 289.8 221.26 288.02C223.04 286.24 225.454 285.24 227.97 285.24V285.24ZM234.05 294.73C234.048 293.526 233.689 292.349 233.019 291.349C232.348 290.348 231.395 289.569 230.282 289.11C229.168 288.651 227.944 288.532 226.763 288.769C225.582 289.006 224.497 289.588 223.647 290.441C222.797 291.294 222.219 292.38 221.986 293.562C221.753 294.744 221.875 295.968 222.338 297.08C222.801 298.192 223.583 299.142 224.585 299.809C225.588 300.477 226.766 300.832 227.97 300.83C229.585 300.825 231.131 300.18 232.271 299.037C233.411 297.893 234.05 296.345 234.05 294.73V294.73Z" fill="#8F82A8"/>
<path d="M227.97 288.63C229.177 288.63 230.356 288.988 231.359 289.658C232.362 290.328 233.144 291.281 233.606 292.396C234.067 293.51 234.188 294.737 233.953 295.92C233.718 297.103 233.137 298.19 232.283 299.043C231.43 299.896 230.343 300.477 229.16 300.713C227.977 300.948 226.75 300.827 225.636 300.366C224.521 299.904 223.568 299.122 222.898 298.119C222.228 297.116 221.87 295.936 221.87 294.73C221.87 293.929 222.028 293.136 222.334 292.396C222.641 291.655 223.09 290.983 223.657 290.417C224.223 289.85 224.896 289.401 225.636 289.094C226.376 288.788 227.169 288.63 227.97 288.63V288.63Z" fill="#9CD2A4"/>
<path d="M199.99 443.06C201.867 443.06 203.702 443.616 205.262 444.659C206.823 445.702 208.039 447.184 208.758 448.918C209.476 450.652 209.664 452.56 209.298 454.401C208.931 456.242 208.028 457.933 206.7 459.26C205.373 460.587 203.682 461.491 201.841 461.857C200.001 462.223 198.092 462.035 196.358 461.317C194.624 460.599 193.142 459.383 192.099 457.822C191.057 456.261 190.5 454.427 190.5 452.55C190.503 450.033 191.503 447.621 193.282 445.842C195.062 444.063 197.474 443.062 199.99 443.06V443.06ZM206.09 452.55C206.092 451.343 205.736 450.162 205.067 449.158C204.398 448.153 203.446 447.37 202.331 446.907C201.217 446.444 199.99 446.321 198.806 446.556C197.622 446.79 196.534 447.37 195.68 448.223C194.826 449.075 194.244 450.162 194.008 451.346C193.772 452.529 193.892 453.756 194.353 454.872C194.815 455.987 195.597 456.94 196.6 457.611C197.603 458.282 198.783 458.64 199.99 458.64C201.604 458.634 203.151 457.991 204.294 456.851C205.437 455.71 206.082 454.164 206.09 452.55V452.55Z" fill="#AC99C9"/>
<path d="M197.73 315.44C199.607 315.44 201.442 315.997 203.003 317.04C204.563 318.083 205.78 319.565 206.498 321.299C207.216 323.033 207.404 324.941 207.038 326.782C206.672 328.623 205.768 330.314 204.441 331.641C203.113 332.968 201.423 333.872 199.582 334.238C197.741 334.604 195.833 334.416 194.099 333.698C192.365 332.98 190.882 331.763 189.84 330.203C188.797 328.642 188.24 326.807 188.24 324.93C188.243 322.414 189.244 320.002 191.023 318.223C192.802 316.444 195.214 315.443 197.73 315.44V315.44ZM203.82 324.93C203.822 323.723 203.466 322.542 202.796 321.538C202.127 320.533 201.174 319.75 200.059 319.287C198.944 318.824 197.717 318.702 196.533 318.937C195.348 319.172 194.261 319.753 193.407 320.607C192.553 321.461 191.972 322.549 191.737 323.733C191.502 324.917 191.624 326.144 192.086 327.259C192.549 328.374 193.333 329.327 194.337 329.997C195.342 330.666 196.523 331.022 197.73 331.02C199.344 331.015 200.89 330.372 202.031 329.231C203.172 328.09 203.815 326.544 203.82 324.93V324.93Z" fill="#8F82A8"/>
<path d="M199.991 446.45C201.197 446.45 202.376 446.808 203.38 447.478C204.383 448.148 205.165 449.101 205.626 450.216C206.088 451.33 206.209 452.557 205.973 453.74C205.738 454.924 205.157 456.01 204.304 456.864C203.451 457.717 202.364 458.298 201.181 458.533C199.997 458.768 198.771 458.648 197.656 458.186C196.542 457.724 195.589 456.942 194.919 455.939C194.248 454.936 193.891 453.757 193.891 452.55C193.896 450.934 194.54 449.385 195.683 448.243C196.826 447.1 198.374 446.455 199.991 446.45Z" fill="#F3ED6D"/>
<path d="M197.731 318.83C198.937 318.83 200.117 319.188 201.12 319.858C202.123 320.528 202.905 321.481 203.367 322.596C203.828 323.71 203.949 324.937 203.714 326.12C203.478 327.303 202.897 328.39 202.044 329.243C201.191 330.097 200.104 330.678 198.921 330.913C197.738 331.148 196.511 331.027 195.396 330.566C194.282 330.104 193.329 329.322 192.659 328.319C191.989 327.316 191.631 326.137 191.631 324.93C191.634 323.313 192.277 321.763 193.42 320.62C194.564 319.476 196.114 318.833 197.731 318.83Z" fill="#9CD2A4"/>
<path d="M180.15 283.14L177.51 286.87C175.955 285.8 174.109 285.231 172.22 285.24C169.704 285.243 167.292 286.244 165.513 288.023C163.734 289.802 162.733 292.214 162.73 294.73C162.721 296.625 163.29 298.477 164.36 300.04L160.24 303L124.15 252.65L133.15 249.9L180.15 283.14Z" fill="#AC99C9"/>
<path d="M177.48 286.87C178.65 287.647 179.633 288.675 180.357 289.878C181.081 291.081 181.529 292.431 181.668 293.828C181.807 295.226 181.634 296.637 181.161 297.96C180.688 299.282 179.927 300.483 178.933 301.475C177.939 302.468 176.737 303.227 175.414 303.698C174.091 304.169 172.68 304.34 171.282 304.199C169.885 304.058 168.536 303.608 167.334 302.882C166.132 302.155 165.106 301.171 164.33 300C163.26 298.437 162.691 296.585 162.7 294.69C162.703 292.174 163.704 289.762 165.483 287.983C167.262 286.204 169.674 285.203 172.19 285.2C174.083 285.203 175.929 285.785 177.48 286.87V286.87ZM178.28 294.73C178.28 293.523 177.922 292.344 177.252 291.34C176.581 290.337 175.628 289.555 174.512 289.094C173.397 288.632 172.17 288.512 170.987 288.748C169.803 288.984 168.716 289.566 167.863 290.42C167.011 291.274 166.431 292.362 166.196 293.546C165.962 294.73 166.084 295.957 166.548 297.072C167.011 298.186 167.794 299.138 168.799 299.807C169.803 300.476 170.983 300.832 172.19 300.83C173.806 300.825 175.353 300.18 176.494 299.037C177.636 297.894 178.278 296.345 178.28 294.73V294.73Z" fill="#8F82A8"/>
<path d="M172.151 288.63C173.357 288.63 174.537 288.988 175.54 289.658C176.543 290.328 177.325 291.281 177.786 292.396C178.248 293.51 178.369 294.737 178.134 295.92C177.898 297.103 177.317 298.19 176.464 299.043C175.611 299.896 174.524 300.477 173.341 300.713C172.158 300.948 170.931 300.827 169.816 300.366C168.702 299.904 167.749 299.122 167.079 298.119C166.409 297.116 166.051 295.936 166.051 294.73C166.053 293.113 166.697 291.563 167.84 290.419C168.984 289.276 170.534 288.633 172.151 288.63V288.63Z" fill="#9CD2A4"/>
<path d="M174.751 194.48L157.431 244.92L154.141 243.53L151.091 242.24L151.621 240.75L169.191 189.52L174.751 194.48Z" fill="#EF9634"/>
<path d="M163.23 393.13C165.11 393.126 166.949 393.68 168.514 394.722C170.079 395.764 171.3 397.247 172.022 398.983C172.744 400.719 172.934 402.63 172.569 404.475C172.204 406.319 171.3 408.014 169.971 409.344C168.642 410.674 166.949 411.58 165.105 411.947C163.261 412.314 161.349 412.126 159.612 411.406C157.875 410.686 156.391 409.467 155.348 407.903C154.304 406.339 153.748 404.5 153.75 402.62C153.753 400.106 154.752 397.695 156.529 395.916C158.306 394.137 160.716 393.135 163.23 393.13V393.13ZM169.33 402.62C169.328 401.414 168.969 400.235 168.297 399.234C167.626 398.232 166.672 397.452 165.557 396.991C164.443 396.531 163.216 396.412 162.034 396.648C160.851 396.885 159.765 397.467 158.913 398.32C158.061 399.174 157.481 400.261 157.246 401.444C157.012 402.627 157.133 403.853 157.595 404.967C158.057 406.081 158.839 407.033 159.842 407.703C160.845 408.372 162.024 408.73 163.23 408.73C164.849 408.727 166.4 408.082 167.544 406.937C168.688 405.791 169.33 404.239 169.33 402.62Z" fill="#AC99C9"/>
<path d="M163.231 396.52C164.44 396.516 165.624 396.871 166.632 397.54C167.639 398.21 168.426 399.163 168.891 400.28C169.356 401.396 169.479 402.626 169.245 403.813C169.011 405 168.429 406.09 167.575 406.946C166.72 407.803 165.63 408.386 164.444 408.622C163.257 408.858 162.028 408.737 160.91 408.274C159.793 407.81 158.838 407.025 158.167 406.019C157.496 405.012 157.139 403.829 157.141 402.62C157.143 401.004 157.785 399.456 158.927 398.313C160.068 397.17 161.615 396.525 163.231 396.52V396.52Z" fill="#F3ED6D"/>
<path d="M138.65 346.19L128.3 364.12L110.37 353.76L120.72 335.83L138.65 346.19ZM127.06 359.47L134.06 347.42L121.99 340.48L115.04 352.48L127.06 359.47Z" fill="#79A4AD"/>
<path d="M134.031 347.42L127.061 359.48L115.011 352.53L121.961 340.48L134.031 347.42Z" fill="#AC99C9"/>
<path d="M126.821 367.25L116.481 385.17L98.5508 374.83L108.911 356.9L126.821 367.25ZM115.231 380.54L122.231 368.49L110.181 361.49L103.181 373.54L115.231 380.54Z" fill="#79A4AD"/>
<path d="M110.144 361.516L103.178 373.567L115.229 380.534L122.195 368.482L110.144 361.516Z" fill="#AC99C9"/>
</svg>
