<svg width="24" height="24" viewBox="0 0 24 24" fill="none" xmlns="http://www.w3.org/2000/svg">
<path fill-rule="evenodd" clip-rule="evenodd" d="M21.8184 6.1461C21.1358 6.44856 20.4034 6.65368 19.6339 6.74525C20.4196 6.27474 21.0211 5.52844 21.3061 4.64189C20.5691 5.07762 19.7556 5.39401 18.8887 5.56553C18.1946 4.82501 17.2072 4.36377 16.112 4.36377C14.011 4.36377 12.3075 6.06731 12.3075 8.16719C12.3075 8.46501 12.3411 8.75589 12.406 9.03404C9.24459 8.87525 6.44128 7.36062 4.56507 5.05907C4.2371 5.61998 4.05053 6.27356 4.05053 6.97122C4.05053 8.29119 4.72268 9.45586 5.74249 10.1373C5.11901 10.1164 4.53262 9.94489 4.01925 9.6598V9.70732C4.01925 11.5499 5.3311 13.0877 7.07056 13.4377C6.75186 13.5235 6.4158 13.571 6.06813 13.571C5.82246 13.571 5.58489 13.5467 5.35195 13.5003C5.83634 15.0126 7.24092 16.1124 8.90507 16.1426C7.60365 17.1624 5.96268 17.7685 4.18034 17.7685C3.87325 17.7685 3.57077 17.7499 3.27295 17.7163C4.9568 18.7976 6.95586 19.428 9.1044 19.428C16.1028 19.428 19.9283 13.6313 19.9283 8.6041L19.9155 8.11159C20.663 7.57847 21.3096 6.90865 21.8184 6.1461Z" fill="#101828"/>
<mask id="mask0_1575_12650" style="mask-type:alpha" maskUnits="userSpaceOnUse" x="3" y="4" width="19" height="16">
<path fill-rule="evenodd" clip-rule="evenodd" d="M21.8184 6.1461C21.1358 6.44856 20.4034 6.65368 19.6339 6.74525C20.4196 6.27474 21.0211 5.52844 21.3061 4.64189C20.5691 5.07762 19.7556 5.39401 18.8887 5.56553C18.1946 4.82501 17.2072 4.36377 16.112 4.36377C14.011 4.36377 12.3075 6.06731 12.3075 8.16719C12.3075 8.46501 12.3411 8.75589 12.406 9.03404C9.24459 8.87525 6.44128 7.36062 4.56507 5.05907C4.2371 5.61998 4.05053 6.27356 4.05053 6.97122C4.05053 8.29119 4.72268 9.45586 5.74249 10.1373C5.11901 10.1164 4.53262 9.94489 4.01925 9.6598V9.70732C4.01925 11.5499 5.3311 13.0877 7.07056 13.4377C6.75186 13.5235 6.4158 13.571 6.06813 13.571C5.82246 13.571 5.58489 13.5467 5.35195 13.5003C5.83634 15.0126 7.24092 16.1124 8.90507 16.1426C7.60365 17.1624 5.96268 17.7685 4.18034 17.7685C3.87325 17.7685 3.57077 17.7499 3.27295 17.7163C4.9568 18.7976 6.95586 19.428 9.1044 19.428C16.1028 19.428 19.9283 13.6313 19.9283 8.6041L19.9155 8.11159C20.663 7.57847 21.3096 6.90865 21.8184 6.1461Z" fill="white"/>
</mask>
<g mask="url(#mask0_1575_12650)">
</g>
</svg>
